<svg width="344" height="247" viewBox="0 0 344 247" fill="none" xmlns="http://www.w3.org/2000/svg">
<path d="M0 0H344V247H0V0Z" fill="white"/>
<rect x="26.5" y="58.5" width="52" height="25" rx="7.5" stroke="#DFDEDE"/>
<path d="M43.833 66.0469V76H42.5342V66.0469H43.833ZM47.0322 66.0469V67.127H39.3418V66.0469H47.0322ZM50.7031 76.1367C50.1882 76.1367 49.721 76.0501 49.3018 75.877C48.887 75.6992 48.5293 75.4508 48.2285 75.1318C47.9323 74.8128 47.7044 74.4346 47.5449 73.9971C47.3854 73.5596 47.3057 73.0811 47.3057 72.5615V72.2744C47.3057 71.6729 47.3945 71.1374 47.5723 70.668C47.75 70.194 47.9915 69.793 48.2969 69.4648C48.6022 69.1367 48.9486 68.8883 49.3359 68.7197C49.7233 68.5511 50.1243 68.4668 50.5391 68.4668C51.0677 68.4668 51.5234 68.5579 51.9062 68.7402C52.2936 68.9225 52.6104 69.1777 52.8564 69.5059C53.1025 69.8294 53.2848 70.2122 53.4033 70.6543C53.5218 71.0918 53.5811 71.5703 53.5811 72.0898V72.6572H48.0576V71.625H52.3164V71.5293C52.2982 71.2012 52.2298 70.8822 52.1113 70.5723C51.9974 70.2624 51.8151 70.0072 51.5645 69.8066C51.3138 69.6061 50.972 69.5059 50.5391 69.5059C50.252 69.5059 49.9876 69.5674 49.7461 69.6904C49.5046 69.8089 49.2972 69.9867 49.124 70.2236C48.9508 70.4606 48.8164 70.75 48.7207 71.0918C48.625 71.4336 48.5771 71.8278 48.5771 72.2744V72.5615C48.5771 72.9124 48.625 73.2428 48.7207 73.5527C48.821 73.8581 48.9645 74.127 49.1514 74.3594C49.3428 74.5918 49.5729 74.7741 49.8418 74.9062C50.1152 75.0384 50.4251 75.1045 50.7715 75.1045C51.2181 75.1045 51.5964 75.0133 51.9062 74.8311C52.2161 74.6488 52.4873 74.4049 52.7197 74.0996L53.4854 74.708C53.3258 74.9495 53.123 75.1797 52.877 75.3984C52.6309 75.6172 52.3278 75.7949 51.9678 75.9316C51.6123 76.0684 51.1908 76.1367 50.7031 76.1367ZM55.9121 68.6035L57.5322 71.2969L59.1729 68.6035H60.6562L58.2363 72.2539L60.7314 76H59.2686L57.5596 73.2246L55.8506 76H54.3809L56.8691 72.2539L54.4561 68.6035H55.9121ZM65.0996 68.6035V69.5742H61.1006V68.6035H65.0996ZM62.4541 66.8057H63.7188V74.168C63.7188 74.4186 63.7575 74.6077 63.835 74.7354C63.9124 74.863 64.0127 74.9473 64.1357 74.9883C64.2588 75.0293 64.391 75.0498 64.5322 75.0498C64.637 75.0498 64.7464 75.0407 64.8604 75.0225C64.9788 74.9997 65.0677 74.9814 65.127 74.9678L65.1338 76C65.0335 76.0319 64.9014 76.0615 64.7373 76.0889C64.5778 76.1208 64.3841 76.1367 64.1562 76.1367C63.8464 76.1367 63.5615 76.0752 63.3018 75.9521C63.042 75.8291 62.8346 75.624 62.6797 75.3369C62.5293 75.0452 62.4541 74.6533 62.4541 74.1611V66.8057Z" fill="#C8C8C8"/>
<rect x="102.5" y="58.5" width="52" height="25" rx="7.5" stroke="#4D88A9"/>
<path d="M119.833 66.0469V76H118.534V66.0469H119.833ZM123.032 66.0469V67.127H115.342V66.0469H123.032ZM126.703 76.1367C126.188 76.1367 125.721 76.0501 125.302 75.877C124.887 75.6992 124.529 75.4508 124.229 75.1318C123.932 74.8128 123.704 74.4346 123.545 73.9971C123.385 73.5596 123.306 73.0811 123.306 72.5615V72.2744C123.306 71.6729 123.395 71.1374 123.572 70.668C123.75 70.194 123.992 69.793 124.297 69.4648C124.602 69.1367 124.949 68.8883 125.336 68.7197C125.723 68.5511 126.124 68.4668 126.539 68.4668C127.068 68.4668 127.523 68.5579 127.906 68.7402C128.294 68.9225 128.61 69.1777 128.856 69.5059C129.103 69.8294 129.285 70.2122 129.403 70.6543C129.522 71.0918 129.581 71.5703 129.581 72.0898V72.6572H124.058V71.625H128.316V71.5293C128.298 71.2012 128.23 70.8822 128.111 70.5723C127.997 70.2624 127.815 70.0072 127.564 69.8066C127.314 69.6061 126.972 69.5059 126.539 69.5059C126.252 69.5059 125.988 69.5674 125.746 69.6904C125.505 69.8089 125.297 69.9867 125.124 70.2236C124.951 70.4606 124.816 70.75 124.721 71.0918C124.625 71.4336 124.577 71.8278 124.577 72.2744V72.5615C124.577 72.9124 124.625 73.2428 124.721 73.5527C124.821 73.8581 124.965 74.127 125.151 74.3594C125.343 74.5918 125.573 74.7741 125.842 74.9062C126.115 75.0384 126.425 75.1045 126.771 75.1045C127.218 75.1045 127.596 75.0133 127.906 74.8311C128.216 74.6488 128.487 74.4049 128.72 74.0996L129.485 74.708C129.326 74.9495 129.123 75.1797 128.877 75.3984C128.631 75.6172 128.328 75.7949 127.968 75.9316C127.612 76.0684 127.191 76.1367 126.703 76.1367ZM131.912 68.6035L133.532 71.2969L135.173 68.6035H136.656L134.236 72.2539L136.731 76H135.269L133.56 73.2246L131.851 76H130.381L132.869 72.2539L130.456 68.6035H131.912ZM141.1 68.6035V69.5742H137.101V68.6035H141.1ZM138.454 66.8057H139.719V74.168C139.719 74.4186 139.757 74.6077 139.835 74.7354C139.912 74.863 140.013 74.9473 140.136 74.9883C140.259 75.0293 140.391 75.0498 140.532 75.0498C140.637 75.0498 140.746 75.0407 140.86 75.0225C140.979 74.9997 141.068 74.9814 141.127 74.9678L141.134 76C141.034 76.0319 140.901 76.0615 140.737 76.0889C140.578 76.1208 140.384 76.1367 140.156 76.1367C139.846 76.1367 139.562 76.0752 139.302 75.9521C139.042 75.8291 138.835 75.624 138.68 75.3369C138.529 75.0452 138.454 74.6533 138.454 74.1611V66.8057Z" fill="#4D88A9"/>
<rect x="178.5" y="58.5" width="52" height="25" rx="7.5" fill="#DAEFFB" stroke="#4D88A9"/>
<path d="M195.833 66.0469V76H194.534V66.0469H195.833ZM199.032 66.0469V67.127H191.342V66.0469H199.032ZM202.703 76.1367C202.188 76.1367 201.721 76.0501 201.302 75.877C200.887 75.6992 200.529 75.4508 200.229 75.1318C199.932 74.8128 199.704 74.4346 199.545 73.9971C199.385 73.5596 199.306 73.0811 199.306 72.5615V72.2744C199.306 71.6729 199.395 71.1374 199.572 70.668C199.75 70.194 199.992 69.793 200.297 69.4648C200.602 69.1367 200.949 68.8883 201.336 68.7197C201.723 68.5511 202.124 68.4668 202.539 68.4668C203.068 68.4668 203.523 68.5579 203.906 68.7402C204.294 68.9225 204.61 69.1777 204.856 69.5059C205.103 69.8294 205.285 70.2122 205.403 70.6543C205.522 71.0918 205.581 71.5703 205.581 72.0898V72.6572H200.058V71.625H204.316V71.5293C204.298 71.2012 204.23 70.8822 204.111 70.5723C203.997 70.2624 203.815 70.0072 203.564 69.8066C203.314 69.6061 202.972 69.5059 202.539 69.5059C202.252 69.5059 201.988 69.5674 201.746 69.6904C201.505 69.8089 201.297 69.9867 201.124 70.2236C200.951 70.4606 200.816 70.75 200.721 71.0918C200.625 71.4336 200.577 71.8278 200.577 72.2744V72.5615C200.577 72.9124 200.625 73.2428 200.721 73.5527C200.821 73.8581 200.965 74.127 201.151 74.3594C201.343 74.5918 201.573 74.7741 201.842 74.9062C202.115 75.0384 202.425 75.1045 202.771 75.1045C203.218 75.1045 203.596 75.0133 203.906 74.8311C204.216 74.6488 204.487 74.4049 204.72 74.0996L205.485 74.708C205.326 74.9495 205.123 75.1797 204.877 75.3984C204.631 75.6172 204.328 75.7949 203.968 75.9316C203.612 76.0684 203.191 76.1367 202.703 76.1367ZM207.912 68.6035L209.532 71.2969L211.173 68.6035H212.656L210.236 72.2539L212.731 76H211.269L209.56 73.2246L207.851 76H206.381L208.869 72.2539L206.456 68.6035H207.912ZM217.1 68.6035V69.5742H213.101V68.6035H217.1ZM214.454 66.8057H215.719V74.168C215.719 74.4186 215.757 74.6077 215.835 74.7354C215.912 74.863 216.013 74.9473 216.136 74.9883C216.259 75.0293 216.391 75.0498 216.532 75.0498C216.637 75.0498 216.746 75.0407 216.86 75.0225C216.979 74.9997 217.068 74.9814 217.127 74.9678L217.134 76C217.034 76.0319 216.901 76.0615 216.737 76.0889C216.578 76.1208 216.384 76.1367 216.156 76.1367C215.846 76.1367 215.562 76.0752 215.302 75.9521C215.042 75.8291 214.835 75.624 214.68 75.3369C214.529 75.0452 214.454 74.6533 214.454 74.1611V66.8057Z" fill="#4D88A9"/>
<rect x="254.5" y="58.5" width="52" height="25" rx="7.5" fill="#86CAF0" stroke="#4D88A9"/>
<path d="M271.833 66.0469V76H270.534V66.0469H271.833ZM275.032 66.0469V67.127H267.342V66.0469H275.032ZM278.703 76.1367C278.188 76.1367 277.721 76.0501 277.302 75.877C276.887 75.6992 276.529 75.4508 276.229 75.1318C275.932 74.8128 275.704 74.4346 275.545 73.9971C275.385 73.5596 275.306 73.0811 275.306 72.5615V72.2744C275.306 71.6729 275.395 71.1374 275.572 70.668C275.75 70.194 275.992 69.793 276.297 69.4648C276.602 69.1367 276.949 68.8883 277.336 68.7197C277.723 68.5511 278.124 68.4668 278.539 68.4668C279.068 68.4668 279.523 68.5579 279.906 68.7402C280.294 68.9225 280.61 69.1777 280.856 69.5059C281.103 69.8294 281.285 70.2122 281.403 70.6543C281.522 71.0918 281.581 71.5703 281.581 72.0898V72.6572H276.058V71.625H280.316V71.5293C280.298 71.2012 280.23 70.8822 280.111 70.5723C279.997 70.2624 279.815 70.0072 279.564 69.8066C279.314 69.6061 278.972 69.5059 278.539 69.5059C278.252 69.5059 277.988 69.5674 277.746 69.6904C277.505 69.8089 277.297 69.9867 277.124 70.2236C276.951 70.4606 276.816 70.75 276.721 71.0918C276.625 71.4336 276.577 71.8278 276.577 72.2744V72.5615C276.577 72.9124 276.625 73.2428 276.721 73.5527C276.821 73.8581 276.965 74.127 277.151 74.3594C277.343 74.5918 277.573 74.7741 277.842 74.9062C278.115 75.0384 278.425 75.1045 278.771 75.1045C279.218 75.1045 279.596 75.0133 279.906 74.8311C280.216 74.6488 280.487 74.4049 280.72 74.0996L281.485 74.708C281.326 74.9495 281.123 75.1797 280.877 75.3984C280.631 75.6172 280.328 75.7949 279.968 75.9316C279.612 76.0684 279.191 76.1367 278.703 76.1367ZM283.912 68.6035L285.532 71.2969L287.173 68.6035H288.656L286.236 72.2539L288.731 76H287.269L285.56 73.2246L283.851 76H282.381L284.869 72.2539L282.456 68.6035H283.912ZM293.1 68.6035V69.5742H289.101V68.6035H293.1ZM290.454 66.8057H291.719V74.168C291.719 74.4186 291.757 74.6077 291.835 74.7354C291.912 74.863 292.013 74.9473 292.136 74.9883C292.259 75.0293 292.391 75.0498 292.532 75.0498C292.637 75.0498 292.746 75.0407 292.86 75.0225C292.979 74.9997 293.068 74.9814 293.127 74.9678L293.134 76C293.034 76.0319 292.901 76.0615 292.737 76.0889C292.578 76.1208 292.384 76.1367 292.156 76.1367C291.846 76.1367 291.562 76.0752 291.302 75.9521C291.042 75.8291 290.835 75.624 290.68 75.3369C290.529 75.0452 290.454 74.6533 290.454 74.1611V66.8057Z" fill="#4D88A9"/>
<path d="M37.8223 38.7695V31H38.9121V40H37.916L37.8223 38.7695ZM33.5566 36.9004V36.7773C33.5566 36.293 33.6152 35.8535 33.7324 35.459C33.8535 35.0605 34.0234 34.7188 34.2422 34.4336C34.4648 34.1484 34.7285 33.9297 35.0332 33.7773C35.3418 33.6211 35.6855 33.543 36.0645 33.543C36.4629 33.543 36.8105 33.6133 37.1074 33.7539C37.4082 33.8906 37.6621 34.0918 37.8691 34.3574C38.0801 34.6191 38.2461 34.9355 38.3672 35.3066C38.4883 35.6777 38.5723 36.0977 38.6191 36.5664V37.1055C38.5762 37.5703 38.4922 37.9883 38.3672 38.3594C38.2461 38.7305 38.0801 39.0469 37.8691 39.3086C37.6621 39.5703 37.4082 39.7715 37.1074 39.9121C36.8066 40.0488 36.4551 40.1172 36.0527 40.1172C35.6816 40.1172 35.3418 40.0371 35.0332 39.877C34.7285 39.7168 34.4648 39.4922 34.2422 39.2031C34.0234 38.9141 33.8535 38.5742 33.7324 38.1836C33.6152 37.7891 33.5566 37.3613 33.5566 36.9004ZM34.6465 36.7773V36.9004C34.6465 37.2168 34.6777 37.5137 34.7402 37.791C34.8066 38.0684 34.9082 38.3125 35.0449 38.5234C35.1816 38.7344 35.3555 38.9004 35.5664 39.0215C35.7773 39.1387 36.0293 39.1973 36.3223 39.1973C36.6816 39.1973 36.9766 39.1211 37.207 38.9688C37.4414 38.8164 37.6289 38.6152 37.7695 38.3652C37.9102 38.1152 38.0195 37.8438 38.0977 37.5508V36.1387C38.0508 35.9238 37.9824 35.7168 37.8926 35.5176C37.8066 35.3145 37.6934 35.1348 37.5527 34.9785C37.416 34.8184 37.2461 34.6914 37.043 34.5977C36.8438 34.5039 36.6074 34.457 36.334 34.457C36.0371 34.457 35.7812 34.5195 35.5664 34.6445C35.3555 34.7656 35.1816 34.9336 35.0449 35.1484C34.9082 35.3594 34.8066 35.6055 34.7402 35.8867C34.6777 36.1641 34.6465 36.4609 34.6465 36.7773ZM41.7773 33.6602V40H40.6875V33.6602H41.7773ZM40.6055 31.9785C40.6055 31.8027 40.6582 31.6543 40.7637 31.5332C40.873 31.4121 41.0332 31.3516 41.2441 31.3516C41.4512 31.3516 41.6094 31.4121 41.7188 31.5332C41.832 31.6543 41.8887 31.8027 41.8887 31.9785C41.8887 32.1465 41.832 32.291 41.7188 32.4121C41.6094 32.5293 41.4512 32.5879 41.2441 32.5879C41.0332 32.5879 40.873 32.5293 40.7637 32.4121C40.6582 32.291 40.6055 32.1465 40.6055 31.9785ZM47.209 38.3184C47.209 38.1621 47.1738 38.0176 47.1035 37.8848C47.0371 37.748 46.8984 37.625 46.6875 37.5156C46.4805 37.4023 46.168 37.3047 45.75 37.2227C45.3984 37.1484 45.0801 37.0605 44.7949 36.959C44.5137 36.8574 44.2734 36.7344 44.0742 36.5898C43.8789 36.4453 43.7285 36.2754 43.623 36.0801C43.5176 35.8848 43.4648 35.6562 43.4648 35.3945C43.4648 35.1445 43.5195 34.9082 43.6289 34.6855C43.7422 34.4629 43.9004 34.2656 44.1035 34.0938C44.3105 33.9219 44.5586 33.7871 44.8477 33.6895C45.1367 33.5918 45.459 33.543 45.8145 33.543C46.3223 33.543 46.7559 33.6328 47.1152 33.8125C47.4746 33.9922 47.75 34.2324 47.9414 34.5332C48.1328 34.8301 48.2285 35.1602 48.2285 35.5234H47.1445C47.1445 35.3477 47.0918 35.1777 46.9863 35.0137C46.8848 34.8457 46.7344 34.707 46.5352 34.5977C46.3398 34.4883 46.0996 34.4336 45.8145 34.4336C45.5137 34.4336 45.2695 34.4805 45.082 34.5742C44.8984 34.6641 44.7637 34.7793 44.6777 34.9199C44.5957 35.0605 44.5547 35.209 44.5547 35.3652C44.5547 35.4824 44.5742 35.5879 44.6133 35.6816C44.6562 35.7715 44.7305 35.8555 44.8359 35.9336C44.9414 36.0078 45.0898 36.0781 45.2812 36.1445C45.4727 36.2109 45.7168 36.2773 46.0137 36.3438C46.5332 36.4609 46.9609 36.6016 47.2969 36.7656C47.6328 36.9297 47.8828 37.1309 48.0469 37.3691C48.2109 37.6074 48.293 37.8965 48.293 38.2363C48.293 38.5137 48.2344 38.7676 48.1172 38.998C48.0039 39.2285 47.8379 39.4277 47.6191 39.5957C47.4043 39.7598 47.1465 39.8887 46.8457 39.9824C46.5488 40.0723 46.2148 40.1172 45.8438 40.1172C45.2852 40.1172 44.8125 40.0176 44.4258 39.8184C44.0391 39.6191 43.7461 39.3613 43.5469 39.0449C43.3477 38.7285 43.248 38.3945 43.248 38.043H44.3379C44.3535 38.3398 44.4395 38.5762 44.5957 38.752C44.752 38.9238 44.9434 39.0469 45.1699 39.1211C45.3965 39.1914 45.6211 39.2266 45.8438 39.2266C46.1406 39.2266 46.3887 39.1875 46.5879 39.1094C46.791 39.0312 46.9453 38.9238 47.0508 38.7871C47.1562 38.6504 47.209 38.4941 47.209 38.3184ZM53.4551 38.916V35.6523C53.4551 35.4023 53.4043 35.1855 53.3027 35.002C53.2051 34.8145 53.0566 34.6699 52.8574 34.5684C52.6582 34.4668 52.4121 34.416 52.1191 34.416C51.8457 34.416 51.6055 34.4629 51.3984 34.5566C51.1953 34.6504 51.0352 34.7734 50.918 34.9258C50.8047 35.0781 50.748 35.2422 50.748 35.418H49.6641C49.6641 35.1914 49.7227 34.9668 49.8398 34.7441C49.957 34.5215 50.125 34.3203 50.3438 34.1406C50.5664 33.957 50.832 33.8125 51.1406 33.707C51.4531 33.5977 51.8008 33.543 52.1836 33.543C52.6445 33.543 53.0508 33.6211 53.4023 33.7773C53.7578 33.9336 54.0352 34.1699 54.2344 34.4863C54.4375 34.7988 54.5391 35.1914 54.5391 35.6641V38.6172C54.5391 38.8281 54.5566 39.0527 54.5918 39.291C54.6309 39.5293 54.6875 39.7344 54.7617 39.9062V40H53.6309C53.5762 39.875 53.5332 39.709 53.502 39.502C53.4707 39.291 53.4551 39.0957 53.4551 38.916ZM53.6426 36.1562L53.6543 36.918H52.5586C52.25 36.918 51.9746 36.9434 51.7324 36.9941C51.4902 37.041 51.2871 37.1133 51.123 37.2109C50.959 37.3086 50.834 37.4316 50.748 37.5801C50.6621 37.7246 50.6191 37.8945 50.6191 38.0898C50.6191 38.2891 50.6641 38.4707 50.7539 38.6348C50.8438 38.7988 50.9785 38.9297 51.1582 39.0273C51.3418 39.1211 51.5664 39.168 51.832 39.168C52.1641 39.168 52.457 39.0977 52.7109 38.957C52.9648 38.8164 53.166 38.6445 53.3145 38.4414C53.4668 38.2383 53.5488 38.041 53.5605 37.8496L54.0234 38.3711C53.9961 38.5352 53.9219 38.7168 53.8008 38.916C53.6797 39.1152 53.5176 39.3066 53.3145 39.4902C53.1152 39.6699 52.877 39.8203 52.5996 39.9414C52.3262 40.0586 52.0176 40.1172 51.6738 40.1172C51.2441 40.1172 50.8672 40.0332 50.543 39.8652C50.2227 39.6973 49.9727 39.4727 49.793 39.1914C49.6172 38.9062 49.5293 38.5879 49.5293 38.2363C49.5293 37.8965 49.5957 37.5977 49.7285 37.3398C49.8613 37.0781 50.0527 36.8613 50.3027 36.6895C50.5527 36.5137 50.8535 36.3809 51.2051 36.291C51.5566 36.2012 51.9492 36.1562 52.3828 36.1562H53.6426ZM56.2383 31H57.3281V38.7695L57.2344 40H56.2383V31ZM61.6113 36.7773V36.9004C61.6113 37.3613 61.5566 37.7891 61.4473 38.1836C61.3379 38.5742 61.1777 38.9141 60.9668 39.2031C60.7559 39.4922 60.498 39.7168 60.1934 39.877C59.8887 40.0371 59.5391 40.1172 59.1445 40.1172C58.7422 40.1172 58.3887 40.0488 58.084 39.9121C57.7832 39.7715 57.5293 39.5703 57.3223 39.3086C57.1152 39.0469 56.9492 38.7305 56.8242 38.3594C56.7031 37.9883 56.6191 37.5703 56.5723 37.1055V36.5664C56.6191 36.0977 56.7031 35.6777 56.8242 35.3066C56.9492 34.9355 57.1152 34.6191 57.3223 34.3574C57.5293 34.0918 57.7832 33.8906 58.084 33.7539C58.3848 33.6133 58.7344 33.543 59.1328 33.543C59.5312 33.543 59.8848 33.6211 60.1934 33.7773C60.502 33.9297 60.7598 34.1484 60.9668 34.4336C61.1777 34.7188 61.3379 35.0605 61.4473 35.459C61.5566 35.8535 61.6113 36.293 61.6113 36.7773ZM60.5215 36.9004V36.7773C60.5215 36.4609 60.4922 36.1641 60.4336 35.8867C60.375 35.6055 60.2812 35.3594 60.1523 35.1484C60.0234 34.9336 59.8535 34.7656 59.6426 34.6445C59.4316 34.5195 59.1719 34.457 58.8633 34.457C58.5898 34.457 58.3516 34.5039 58.1484 34.5977C57.9492 34.6914 57.7793 34.8184 57.6387 34.9785C57.498 35.1348 57.3828 35.3145 57.293 35.5176C57.207 35.7168 57.1426 35.9238 57.0996 36.1387V37.5508C57.1621 37.8242 57.2637 38.0879 57.4043 38.3418C57.5488 38.5918 57.7402 38.7969 57.9785 38.957C58.2207 39.1172 58.5195 39.1973 58.875 39.1973C59.168 39.1973 59.418 39.1387 59.625 39.0215C59.8359 38.9004 60.0059 38.7344 60.1348 38.5234C60.2676 38.3125 60.3652 38.0684 60.4277 37.791C60.4902 37.5137 60.5215 37.2168 60.5215 36.9004ZM64.1602 31V40H63.0703V31H64.1602ZM68.5312 40.1172C68.0898 40.1172 67.6895 40.043 67.3301 39.8945C66.9746 39.7422 66.668 39.5293 66.4102 39.2559C66.1562 38.9824 65.9609 38.6582 65.8242 38.2832C65.6875 37.9082 65.6191 37.498 65.6191 37.0527V36.8066C65.6191 36.291 65.6953 35.832 65.8477 35.4297C66 35.0234 66.207 34.6797 66.4688 34.3984C66.7305 34.1172 67.0273 33.9043 67.3594 33.7598C67.6914 33.6152 68.0352 33.543 68.3906 33.543C68.8438 33.543 69.2344 33.6211 69.5625 33.7773C69.8945 33.9336 70.166 34.1523 70.377 34.4336C70.5879 34.7109 70.7441 35.0391 70.8457 35.418C70.9473 35.793 70.998 36.2031 70.998 36.6484V37.1348H66.2637V36.25H69.9141V36.168C69.8984 35.8867 69.8398 35.6133 69.7383 35.3477C69.6406 35.082 69.4844 34.8633 69.2695 34.6914C69.0547 34.5195 68.7617 34.4336 68.3906 34.4336C68.1445 34.4336 67.918 34.4863 67.7109 34.5918C67.5039 34.6934 67.3262 34.8457 67.1777 35.0488C67.0293 35.252 66.9141 35.5 66.832 35.793C66.75 36.0859 66.709 36.4238 66.709 36.8066V37.0527C66.709 37.3535 66.75 37.6367 66.832 37.9023C66.918 38.1641 67.041 38.3945 67.2012 38.5938C67.3652 38.793 67.5625 38.9492 67.793 39.0625C68.0273 39.1758 68.293 39.2324 68.5898 39.2324C68.9727 39.2324 69.2969 39.1543 69.5625 38.998C69.8281 38.8418 70.0605 38.6328 70.2598 38.3711L70.916 38.8926C70.7793 39.0996 70.6055 39.2969 70.3945 39.4844C70.1836 39.6719 69.9238 39.8242 69.6152 39.9414C69.3105 40.0586 68.9492 40.1172 68.5312 40.1172Z" fill="black"/>
<path d="M110.91 35.0137V40H109.826V33.6602H110.852L110.91 35.0137ZM110.652 36.5898L110.201 36.5723C110.205 36.1387 110.27 35.7383 110.395 35.3711C110.52 35 110.695 34.6777 110.922 34.4043C111.148 34.1309 111.418 33.9199 111.73 33.7715C112.047 33.6191 112.396 33.543 112.779 33.543C113.092 33.543 113.373 33.5859 113.623 33.6719C113.873 33.7539 114.086 33.8867 114.262 34.0703C114.441 34.2539 114.578 34.4922 114.672 34.7852C114.766 35.0742 114.812 35.4277 114.812 35.8457V40H113.723V35.834C113.723 35.502 113.674 35.2363 113.576 35.0371C113.479 34.834 113.336 34.6875 113.148 34.5977C112.961 34.5039 112.73 34.457 112.457 34.457C112.188 34.457 111.941 34.5137 111.719 34.627C111.5 34.7402 111.311 34.8965 111.15 35.0957C110.994 35.2949 110.871 35.5234 110.781 35.7812C110.695 36.0352 110.652 36.3047 110.652 36.5898ZM116.172 36.9004V36.7656C116.172 36.3086 116.238 35.8848 116.371 35.4941C116.504 35.0996 116.695 34.7578 116.945 34.4688C117.195 34.1758 117.498 33.9492 117.854 33.7891C118.209 33.625 118.607 33.543 119.049 33.543C119.494 33.543 119.895 33.625 120.25 33.7891C120.609 33.9492 120.914 34.1758 121.164 34.4688C121.418 34.7578 121.611 35.0996 121.744 35.4941C121.877 35.8848 121.943 36.3086 121.943 36.7656V36.9004C121.943 37.3574 121.877 37.7812 121.744 38.1719C121.611 38.5625 121.418 38.9043 121.164 39.1973C120.914 39.4863 120.611 39.7129 120.256 39.877C119.904 40.0371 119.506 40.1172 119.061 40.1172C118.615 40.1172 118.215 40.0371 117.859 39.877C117.504 39.7129 117.199 39.4863 116.945 39.1973C116.695 38.9043 116.504 38.5625 116.371 38.1719C116.238 37.7812 116.172 37.3574 116.172 36.9004ZM117.256 36.7656V36.9004C117.256 37.2168 117.293 37.5156 117.367 37.7969C117.441 38.0742 117.553 38.3203 117.701 38.5352C117.854 38.75 118.043 38.9199 118.27 39.0449C118.496 39.166 118.76 39.2266 119.061 39.2266C119.357 39.2266 119.617 39.166 119.84 39.0449C120.066 38.9199 120.254 38.75 120.402 38.5352C120.551 38.3203 120.662 38.0742 120.736 37.7969C120.814 37.5156 120.854 37.2168 120.854 36.9004V36.7656C120.854 36.4531 120.814 36.1582 120.736 35.8809C120.662 35.5996 120.549 35.3516 120.396 35.1367C120.248 34.918 120.061 34.7461 119.834 34.6211C119.611 34.4961 119.35 34.4336 119.049 34.4336C118.752 34.4336 118.49 34.4961 118.264 34.6211C118.041 34.7461 117.854 34.918 117.701 35.1367C117.553 35.3516 117.441 35.5996 117.367 35.8809C117.293 36.1582 117.256 36.4531 117.256 36.7656ZM124.387 34.6562V40H123.303V33.6602H124.357L124.387 34.6562ZM126.367 33.625L126.361 34.6328C126.271 34.6133 126.186 34.6016 126.104 34.5977C126.025 34.5898 125.936 34.5859 125.834 34.5859C125.584 34.5859 125.363 34.625 125.172 34.7031C124.98 34.7812 124.818 34.8906 124.686 35.0312C124.553 35.1719 124.447 35.3398 124.369 35.5352C124.295 35.7266 124.246 35.9375 124.223 36.168L123.918 36.3438C123.918 35.9609 123.955 35.6016 124.029 35.2656C124.107 34.9297 124.227 34.6328 124.387 34.375C124.547 34.1133 124.75 33.9102 124.996 33.7656C125.246 33.6172 125.543 33.543 125.887 33.543C125.965 33.543 126.055 33.5527 126.156 33.5723C126.258 33.5879 126.328 33.6055 126.367 33.625ZM128.447 34.9199V40H127.357V33.6602H128.389L128.447 34.9199ZM128.225 36.5898L127.721 36.5723C127.725 36.1387 127.781 35.7383 127.891 35.3711C128 35 128.162 34.6777 128.377 34.4043C128.592 34.1309 128.859 33.9199 129.18 33.7715C129.5 33.6191 129.871 33.543 130.293 33.543C130.59 33.543 130.863 33.5859 131.113 33.6719C131.363 33.7539 131.58 33.8848 131.764 34.0645C131.947 34.2441 132.09 34.4746 132.191 34.7559C132.293 35.0371 132.344 35.377 132.344 35.7754V40H131.26V35.8281C131.26 35.4961 131.203 35.2305 131.09 35.0312C130.98 34.832 130.824 34.6875 130.621 34.5977C130.418 34.5039 130.18 34.457 129.906 34.457C129.586 34.457 129.318 34.5137 129.104 34.627C128.889 34.7402 128.717 34.8965 128.588 35.0957C128.459 35.2949 128.365 35.5234 128.307 35.7812C128.252 36.0352 128.225 36.3047 128.225 36.5898ZM132.332 35.9922L131.605 36.2148C131.609 35.8672 131.666 35.5332 131.775 35.2129C131.889 34.8926 132.051 34.6074 132.262 34.3574C132.477 34.1074 132.74 33.9102 133.053 33.7656C133.365 33.6172 133.723 33.543 134.125 33.543C134.465 33.543 134.766 33.5879 135.027 33.6777C135.293 33.7676 135.516 33.9062 135.695 34.0938C135.879 34.2773 136.018 34.5137 136.111 34.8027C136.205 35.0918 136.252 35.4355 136.252 35.834V40H135.162V35.8223C135.162 35.4668 135.105 35.1914 134.992 34.9961C134.883 34.7969 134.727 34.6582 134.523 34.5801C134.324 34.498 134.086 34.457 133.809 34.457C133.57 34.457 133.359 34.498 133.176 34.5801C132.992 34.6621 132.838 34.7754 132.713 34.9199C132.588 35.0605 132.492 35.2227 132.426 35.4062C132.363 35.5898 132.332 35.7852 132.332 35.9922ZM141.631 38.916V35.6523C141.631 35.4023 141.58 35.1855 141.479 35.002C141.381 34.8145 141.232 34.6699 141.033 34.5684C140.834 34.4668 140.588 34.416 140.295 34.416C140.021 34.416 139.781 34.4629 139.574 34.5566C139.371 34.6504 139.211 34.7734 139.094 34.9258C138.98 35.0781 138.924 35.2422 138.924 35.418H137.84C137.84 35.1914 137.898 34.9668 138.016 34.7441C138.133 34.5215 138.301 34.3203 138.52 34.1406C138.742 33.957 139.008 33.8125 139.316 33.707C139.629 33.5977 139.977 33.543 140.359 33.543C140.82 33.543 141.227 33.6211 141.578 33.7773C141.934 33.9336 142.211 34.1699 142.41 34.4863C142.613 34.7988 142.715 35.1914 142.715 35.6641V38.6172C142.715 38.8281 142.732 39.0527 142.768 39.291C142.807 39.5293 142.863 39.7344 142.938 39.9062V40H141.807C141.752 39.875 141.709 39.709 141.678 39.502C141.646 39.291 141.631 39.0957 141.631 38.916ZM141.818 36.1562L141.83 36.918H140.734C140.426 36.918 140.15 36.9434 139.908 36.9941C139.666 37.041 139.463 37.1133 139.299 37.2109C139.135 37.3086 139.01 37.4316 138.924 37.5801C138.838 37.7246 138.795 37.8945 138.795 38.0898C138.795 38.2891 138.84 38.4707 138.93 38.6348C139.02 38.7988 139.154 38.9297 139.334 39.0273C139.518 39.1211 139.742 39.168 140.008 39.168C140.34 39.168 140.633 39.0977 140.887 38.957C141.141 38.8164 141.342 38.6445 141.49 38.4414C141.643 38.2383 141.725 38.041 141.736 37.8496L142.199 38.3711C142.172 38.5352 142.098 38.7168 141.977 38.916C141.855 39.1152 141.693 39.3066 141.49 39.4902C141.291 39.6699 141.053 39.8203 140.775 39.9414C140.502 40.0586 140.193 40.1172 139.85 40.1172C139.42 40.1172 139.043 40.0332 138.719 39.8652C138.398 39.6973 138.148 39.4727 137.969 39.1914C137.793 38.9062 137.705 38.5879 137.705 38.2363C137.705 37.8965 137.771 37.5977 137.904 37.3398C138.037 37.0781 138.229 36.8613 138.479 36.6895C138.729 36.5137 139.029 36.3809 139.381 36.291C139.732 36.2012 140.125 36.1562 140.559 36.1562H141.818ZM145.598 31V40H144.508V31H145.598Z" fill="black"/>
<path d="M191.91 31V40H190.826V31H191.91ZM191.652 36.5898L191.201 36.5723C191.205 36.1387 191.27 35.7383 191.395 35.3711C191.52 35 191.695 34.6777 191.922 34.4043C192.148 34.1309 192.418 33.9199 192.73 33.7715C193.047 33.6191 193.396 33.543 193.779 33.543C194.092 33.543 194.373 33.5859 194.623 33.6719C194.873 33.7539 195.086 33.8867 195.262 34.0703C195.441 34.2539 195.578 34.4922 195.672 34.7852C195.766 35.0742 195.812 35.4277 195.812 35.8457V40H194.723V35.834C194.723 35.502 194.674 35.2363 194.576 35.0371C194.479 34.834 194.336 34.6875 194.148 34.5977C193.961 34.5039 193.73 34.457 193.457 34.457C193.188 34.457 192.941 34.5137 192.719 34.627C192.5 34.7402 192.311 34.8965 192.15 35.0957C191.994 35.2949 191.871 35.5234 191.781 35.7812C191.695 36.0352 191.652 36.3047 191.652 36.5898ZM197.148 36.9004V36.7656C197.148 36.3086 197.215 35.8848 197.348 35.4941C197.48 35.0996 197.672 34.7578 197.922 34.4688C198.172 34.1758 198.475 33.9492 198.83 33.7891C199.186 33.625 199.584 33.543 200.025 33.543C200.471 33.543 200.871 33.625 201.227 33.7891C201.586 33.9492 201.891 34.1758 202.141 34.4688C202.395 34.7578 202.588 35.0996 202.721 35.4941C202.854 35.8848 202.92 36.3086 202.92 36.7656V36.9004C202.92 37.3574 202.854 37.7812 202.721 38.1719C202.588 38.5625 202.395 38.9043 202.141 39.1973C201.891 39.4863 201.588 39.7129 201.232 39.877C200.881 40.0371 200.482 40.1172 200.037 40.1172C199.592 40.1172 199.191 40.0371 198.836 39.877C198.48 39.7129 198.176 39.4863 197.922 39.1973C197.672 38.9043 197.48 38.5625 197.348 38.1719C197.215 37.7812 197.148 37.3574 197.148 36.9004ZM198.232 36.7656V36.9004C198.232 37.2168 198.27 37.5156 198.344 37.7969C198.418 38.0742 198.529 38.3203 198.678 38.5352C198.83 38.75 199.02 38.9199 199.246 39.0449C199.473 39.166 199.736 39.2266 200.037 39.2266C200.334 39.2266 200.594 39.166 200.816 39.0449C201.043 38.9199 201.23 38.75 201.379 38.5352C201.527 38.3203 201.639 38.0742 201.713 37.7969C201.791 37.5156 201.83 37.2168 201.83 36.9004V36.7656C201.83 36.4531 201.791 36.1582 201.713 35.8809C201.639 35.5996 201.525 35.3516 201.373 35.1367C201.225 34.918 201.037 34.7461 200.811 34.6211C200.588 34.4961 200.326 34.4336 200.025 34.4336C199.729 34.4336 199.467 34.4961 199.24 34.6211C199.018 34.7461 198.83 34.918 198.678 35.1367C198.529 35.3516 198.418 35.5996 198.344 35.8809C198.27 36.1582 198.232 36.4531 198.232 36.7656ZM206.113 39.0215L207.848 33.6602H208.955L206.676 40H205.949L206.113 39.0215ZM204.666 33.6602L206.453 39.0508L206.576 40H205.85L203.553 33.6602H204.666ZM212.547 40.1172C212.105 40.1172 211.705 40.043 211.346 39.8945C210.99 39.7422 210.684 39.5293 210.426 39.2559C210.172 38.9824 209.977 38.6582 209.84 38.2832C209.703 37.9082 209.635 37.498 209.635 37.0527V36.8066C209.635 36.291 209.711 35.832 209.863 35.4297C210.016 35.0234 210.223 34.6797 210.484 34.3984C210.746 34.1172 211.043 33.9043 211.375 33.7598C211.707 33.6152 212.051 33.543 212.406 33.543C212.859 33.543 213.25 33.6211 213.578 33.7773C213.91 33.9336 214.182 34.1523 214.393 34.4336C214.604 34.7109 214.76 35.0391 214.861 35.418C214.963 35.793 215.014 36.2031 215.014 36.6484V37.1348H210.279V36.25H213.93V36.168C213.914 35.8867 213.855 35.6133 213.754 35.3477C213.656 35.082 213.5 34.8633 213.285 34.6914C213.07 34.5195 212.777 34.4336 212.406 34.4336C212.16 34.4336 211.934 34.4863 211.727 34.5918C211.52 34.6934 211.342 34.8457 211.193 35.0488C211.045 35.252 210.93 35.5 210.848 35.793C210.766 36.0859 210.725 36.4238 210.725 36.8066V37.0527C210.725 37.3535 210.766 37.6367 210.848 37.9023C210.934 38.1641 211.057 38.3945 211.217 38.5938C211.381 38.793 211.578 38.9492 211.809 39.0625C212.043 39.1758 212.309 39.2324 212.605 39.2324C212.988 39.2324 213.312 39.1543 213.578 38.998C213.844 38.8418 214.076 38.6328 214.275 38.3711L214.932 38.8926C214.795 39.0996 214.621 39.2969 214.41 39.4844C214.199 39.6719 213.939 39.8242 213.631 39.9414C213.326 40.0586 212.965 40.1172 212.547 40.1172ZM217.363 34.6562V40H216.279V33.6602H217.334L217.363 34.6562ZM219.344 33.625L219.338 34.6328C219.248 34.6133 219.162 34.6016 219.08 34.5977C219.002 34.5898 218.912 34.5859 218.811 34.5859C218.561 34.5859 218.34 34.625 218.148 34.7031C217.957 34.7812 217.795 34.8906 217.662 35.0312C217.529 35.1719 217.424 35.3398 217.346 35.5352C217.271 35.7266 217.223 35.9375 217.199 36.168L216.895 36.3438C216.895 35.9609 216.932 35.6016 217.006 35.2656C217.084 34.9297 217.203 34.6328 217.363 34.375C217.523 34.1133 217.727 33.9102 217.973 33.7656C218.223 33.6172 218.52 33.543 218.863 33.543C218.941 33.543 219.031 33.5527 219.133 33.5723C219.234 33.5879 219.305 33.6055 219.344 33.625Z" fill="black"/>
<path d="M267.443 40H266.359V32.9922C266.359 32.5352 266.441 32.1504 266.605 31.8379C266.773 31.5215 267.014 31.2832 267.326 31.123C267.639 30.959 268.01 30.877 268.439 30.877C268.564 30.877 268.689 30.8848 268.814 30.9004C268.943 30.916 269.068 30.9395 269.189 30.9707L269.131 31.8555C269.049 31.8359 268.955 31.8223 268.85 31.8145C268.748 31.8066 268.646 31.8027 268.545 31.8027C268.314 31.8027 268.115 31.8496 267.947 31.9434C267.783 32.0332 267.658 32.166 267.572 32.3418C267.486 32.5176 267.443 32.7344 267.443 32.9922V40ZM268.791 33.6602V34.4922H265.357V33.6602H268.791ZM269.711 36.9004V36.7656C269.711 36.3086 269.777 35.8848 269.91 35.4941C270.043 35.0996 270.234 34.7578 270.484 34.4688C270.734 34.1758 271.037 33.9492 271.393 33.7891C271.748 33.625 272.146 33.543 272.588 33.543C273.033 33.543 273.434 33.625 273.789 33.7891C274.148 33.9492 274.453 34.1758 274.703 34.4688C274.957 34.7578 275.15 35.0996 275.283 35.4941C275.416 35.8848 275.482 36.3086 275.482 36.7656V36.9004C275.482 37.3574 275.416 37.7812 275.283 38.1719C275.15 38.5625 274.957 38.9043 274.703 39.1973C274.453 39.4863 274.15 39.7129 273.795 39.877C273.443 40.0371 273.045 40.1172 272.6 40.1172C272.154 40.1172 271.754 40.0371 271.398 39.877C271.043 39.7129 270.738 39.4863 270.484 39.1973C270.234 38.9043 270.043 38.5625 269.91 38.1719C269.777 37.7812 269.711 37.3574 269.711 36.9004ZM270.795 36.7656V36.9004C270.795 37.2168 270.832 37.5156 270.906 37.7969C270.98 38.0742 271.092 38.3203 271.24 38.5352C271.393 38.75 271.582 38.9199 271.809 39.0449C272.035 39.166 272.299 39.2266 272.6 39.2266C272.896 39.2266 273.156 39.166 273.379 39.0449C273.605 38.9199 273.793 38.75 273.941 38.5352C274.09 38.3203 274.201 38.0742 274.275 37.7969C274.354 37.5156 274.393 37.2168 274.393 36.9004V36.7656C274.393 36.4531 274.354 36.1582 274.275 35.8809C274.201 35.5996 274.088 35.3516 273.936 35.1367C273.787 34.918 273.6 34.7461 273.373 34.6211C273.15 34.4961 272.889 34.4336 272.588 34.4336C272.291 34.4336 272.029 34.4961 271.803 34.6211C271.58 34.7461 271.393 34.918 271.24 35.1367C271.092 35.3516 270.98 35.5996 270.906 35.8809C270.832 36.1582 270.795 36.4531 270.795 36.7656ZM279.379 39.2266C279.637 39.2266 279.875 39.1738 280.094 39.0684C280.312 38.9629 280.492 38.8184 280.633 38.6348C280.773 38.4473 280.854 38.2344 280.873 37.9961H281.904C281.885 38.3711 281.758 38.7207 281.523 39.0449C281.293 39.3652 280.99 39.625 280.615 39.8242C280.24 40.0195 279.828 40.1172 279.379 40.1172C278.902 40.1172 278.486 40.0332 278.131 39.8652C277.779 39.6973 277.486 39.4668 277.252 39.1738C277.021 38.8809 276.848 38.5449 276.73 38.166C276.617 37.7832 276.561 37.3789 276.561 36.9531V36.707C276.561 36.2812 276.617 35.8789 276.73 35.5C276.848 35.1172 277.021 34.7793 277.252 34.4863C277.486 34.1934 277.779 33.9629 278.131 33.7949C278.486 33.627 278.902 33.543 279.379 33.543C279.875 33.543 280.309 33.6445 280.68 33.8477C281.051 34.0469 281.342 34.3203 281.553 34.668C281.768 35.0117 281.885 35.4023 281.904 35.8398H280.873C280.854 35.5781 280.779 35.3418 280.65 35.1309C280.525 34.9199 280.354 34.752 280.135 34.627C279.92 34.498 279.668 34.4336 279.379 34.4336C279.047 34.4336 278.768 34.5 278.541 34.6328C278.318 34.7617 278.141 34.9375 278.008 35.1602C277.879 35.3789 277.785 35.623 277.727 35.8926C277.672 36.1582 277.645 36.4297 277.645 36.707V36.9531C277.645 37.2305 277.672 37.5039 277.727 37.7734C277.781 38.043 277.873 38.2871 278.002 38.5059C278.135 38.7246 278.312 38.9004 278.535 39.0332C278.762 39.1621 279.043 39.2266 279.379 39.2266ZM287.002 38.5352V33.6602H288.092V40H287.055L287.002 38.5352ZM287.207 37.1992L287.658 37.1875C287.658 37.6094 287.613 38 287.523 38.3594C287.438 38.7148 287.297 39.0234 287.102 39.2852C286.906 39.5469 286.65 39.752 286.334 39.9004C286.018 40.0449 285.633 40.1172 285.18 40.1172C284.871 40.1172 284.588 40.0723 284.33 39.9824C284.076 39.8926 283.857 39.7539 283.674 39.5664C283.49 39.3789 283.348 39.1348 283.246 38.834C283.148 38.5332 283.1 38.1719 283.1 37.75V33.6602H284.184V37.7617C284.184 38.0469 284.215 38.2832 284.277 38.4707C284.344 38.6543 284.432 38.8008 284.541 38.9102C284.654 39.0156 284.779 39.0898 284.916 39.1328C285.057 39.1758 285.201 39.1973 285.35 39.1973C285.811 39.1973 286.176 39.1094 286.445 38.9336C286.715 38.7539 286.908 38.5137 287.025 38.2129C287.146 37.9082 287.207 37.5703 287.207 37.1992ZM293.436 38.3184C293.436 38.1621 293.4 38.0176 293.33 37.8848C293.264 37.748 293.125 37.625 292.914 37.5156C292.707 37.4023 292.395 37.3047 291.977 37.2227C291.625 37.1484 291.307 37.0605 291.021 36.959C290.74 36.8574 290.5 36.7344 290.301 36.5898C290.105 36.4453 289.955 36.2754 289.85 36.0801C289.744 35.8848 289.691 35.6562 289.691 35.3945C289.691 35.1445 289.746 34.9082 289.855 34.6855C289.969 34.4629 290.127 34.2656 290.33 34.0938C290.537 33.9219 290.785 33.7871 291.074 33.6895C291.363 33.5918 291.686 33.543 292.041 33.543C292.549 33.543 292.982 33.6328 293.342 33.8125C293.701 33.9922 293.977 34.2324 294.168 34.5332C294.359 34.8301 294.455 35.1602 294.455 35.5234H293.371C293.371 35.3477 293.318 35.1777 293.213 35.0137C293.111 34.8457 292.961 34.707 292.762 34.5977C292.566 34.4883 292.326 34.4336 292.041 34.4336C291.74 34.4336 291.496 34.4805 291.309 34.5742C291.125 34.6641 290.99 34.7793 290.904 34.9199C290.822 35.0605 290.781 35.209 290.781 35.3652C290.781 35.4824 290.801 35.5879 290.84 35.6816C290.883 35.7715 290.957 35.8555 291.062 35.9336C291.168 36.0078 291.316 36.0781 291.508 36.1445C291.699 36.2109 291.943 36.2773 292.24 36.3438C292.76 36.4609 293.188 36.6016 293.523 36.7656C293.859 36.9297 294.109 37.1309 294.273 37.3691C294.438 37.6074 294.52 37.8965 294.52 38.2363C294.52 38.5137 294.461 38.7676 294.344 38.998C294.23 39.2285 294.064 39.4277 293.846 39.5957C293.631 39.7598 293.373 39.8887 293.072 39.9824C292.775 40.0723 292.441 40.1172 292.07 40.1172C291.512 40.1172 291.039 40.0176 290.652 39.8184C290.266 39.6191 289.973 39.3613 289.773 39.0449C289.574 38.7285 289.475 38.3945 289.475 38.043H290.564C290.58 38.3398 290.666 38.5762 290.822 38.752C290.979 38.9238 291.17 39.0469 291.396 39.1211C291.623 39.1914 291.848 39.2266 292.07 39.2266C292.367 39.2266 292.615 39.1875 292.814 39.1094C293.018 39.0312 293.172 38.9238 293.277 38.7871C293.383 38.6504 293.436 38.4941 293.436 38.3184Z" fill="black"/>
<rect x="26.5" y="181.5" width="52" height="25" rx="7.5" fill="#F5F5F5" stroke="#DFDEDE"/>
<path d="M43.833 189.047V199H42.5342V189.047H43.833ZM47.0322 189.047V190.127H39.3418V189.047H47.0322ZM50.7031 199.137C50.1882 199.137 49.721 199.05 49.3018 198.877C48.887 198.699 48.5293 198.451 48.2285 198.132C47.9323 197.813 47.7044 197.435 47.5449 196.997C47.3854 196.56 47.3057 196.081 47.3057 195.562V195.274C47.3057 194.673 47.3945 194.137 47.5723 193.668C47.75 193.194 47.9915 192.793 48.2969 192.465C48.6022 192.137 48.9486 191.888 49.3359 191.72C49.7233 191.551 50.1243 191.467 50.5391 191.467C51.0677 191.467 51.5234 191.558 51.9062 191.74C52.2936 191.923 52.6104 192.178 52.8564 192.506C53.1025 192.829 53.2848 193.212 53.4033 193.654C53.5218 194.092 53.5811 194.57 53.5811 195.09V195.657H48.0576V194.625H52.3164V194.529C52.2982 194.201 52.2298 193.882 52.1113 193.572C51.9974 193.262 51.8151 193.007 51.5645 192.807C51.3138 192.606 50.972 192.506 50.5391 192.506C50.252 192.506 49.9876 192.567 49.7461 192.69C49.5046 192.809 49.2972 192.987 49.124 193.224C48.9508 193.461 48.8164 193.75 48.7207 194.092C48.625 194.434 48.5771 194.828 48.5771 195.274V195.562C48.5771 195.912 48.625 196.243 48.7207 196.553C48.821 196.858 48.9645 197.127 49.1514 197.359C49.3428 197.592 49.5729 197.774 49.8418 197.906C50.1152 198.038 50.4251 198.104 50.7715 198.104C51.2181 198.104 51.5964 198.013 51.9062 197.831C52.2161 197.649 52.4873 197.405 52.7197 197.1L53.4854 197.708C53.3258 197.95 53.123 198.18 52.877 198.398C52.6309 198.617 52.3278 198.795 51.9678 198.932C51.6123 199.068 51.1908 199.137 50.7031 199.137ZM55.9121 191.604L57.5322 194.297L59.1729 191.604H60.6562L58.2363 195.254L60.7314 199H59.2686L57.5596 196.225L55.8506 199H54.3809L56.8691 195.254L54.4561 191.604H55.9121ZM65.0996 191.604V192.574H61.1006V191.604H65.0996ZM62.4541 189.806H63.7188V197.168C63.7188 197.419 63.7575 197.608 63.835 197.735C63.9124 197.863 64.0127 197.947 64.1357 197.988C64.2588 198.029 64.391 198.05 64.5322 198.05C64.637 198.05 64.7464 198.041 64.8604 198.022C64.9788 198 65.0677 197.981 65.127 197.968L65.1338 199C65.0335 199.032 64.9014 199.062 64.7373 199.089C64.5778 199.121 64.3841 199.137 64.1562 199.137C63.8464 199.137 63.5615 199.075 63.3018 198.952C63.042 198.829 62.8346 198.624 62.6797 198.337C62.5293 198.045 62.4541 197.653 62.4541 197.161V189.806Z" fill="#C8C8C8"/>
<rect x="102.5" y="181.5" width="52" height="25" rx="7.5" fill="#4D88A9" stroke="#4D88A9"/>
<path d="M119.833 189.047V199H118.534V189.047H119.833ZM123.032 189.047V190.127H115.342V189.047H123.032ZM126.703 199.137C126.188 199.137 125.721 199.05 125.302 198.877C124.887 198.699 124.529 198.451 124.229 198.132C123.932 197.813 123.704 197.435 123.545 196.997C123.385 196.56 123.306 196.081 123.306 195.562V195.274C123.306 194.673 123.395 194.137 123.572 193.668C123.75 193.194 123.992 192.793 124.297 192.465C124.602 192.137 124.949 191.888 125.336 191.72C125.723 191.551 126.124 191.467 126.539 191.467C127.068 191.467 127.523 191.558 127.906 191.74C128.294 191.923 128.61 192.178 128.856 192.506C129.103 192.829 129.285 193.212 129.403 193.654C129.522 194.092 129.581 194.57 129.581 195.09V195.657H124.058V194.625H128.316V194.529C128.298 194.201 128.23 193.882 128.111 193.572C127.997 193.262 127.815 193.007 127.564 192.807C127.314 192.606 126.972 192.506 126.539 192.506C126.252 192.506 125.988 192.567 125.746 192.69C125.505 192.809 125.297 192.987 125.124 193.224C124.951 193.461 124.816 193.75 124.721 194.092C124.625 194.434 124.577 194.828 124.577 195.274V195.562C124.577 195.912 124.625 196.243 124.721 196.553C124.821 196.858 124.965 197.127 125.151 197.359C125.343 197.592 125.573 197.774 125.842 197.906C126.115 198.038 126.425 198.104 126.771 198.104C127.218 198.104 127.596 198.013 127.906 197.831C128.216 197.649 128.487 197.405 128.72 197.1L129.485 197.708C129.326 197.95 129.123 198.18 128.877 198.398C128.631 198.617 128.328 198.795 127.968 198.932C127.612 199.068 127.191 199.137 126.703 199.137ZM131.912 191.604L133.532 194.297L135.173 191.604H136.656L134.236 195.254L136.731 199H135.269L133.56 196.225L131.851 199H130.381L132.869 195.254L130.456 191.604H131.912ZM141.1 191.604V192.574H137.101V191.604H141.1ZM138.454 189.806H139.719V197.168C139.719 197.419 139.757 197.608 139.835 197.735C139.912 197.863 140.013 197.947 140.136 197.988C140.259 198.029 140.391 198.05 140.532 198.05C140.637 198.05 140.746 198.041 140.86 198.022C140.979 198 141.068 197.981 141.127 197.968L141.134 199C141.034 199.032 140.901 199.062 140.737 199.089C140.578 199.121 140.384 199.137 140.156 199.137C139.846 199.137 139.562 199.075 139.302 198.952C139.042 198.829 138.835 198.624 138.68 198.337C138.529 198.045 138.454 197.653 138.454 197.161V189.806Z" fill="white"/>
<rect x="178.5" y="181.5" width="52" height="25" rx="7.5" fill="#6FBBE6" stroke="#6FBBE5"/>
<path d="M195.833 189.047V199H194.534V189.047H195.833ZM199.032 189.047V190.127H191.342V189.047H199.032ZM202.703 199.137C202.188 199.137 201.721 199.05 201.302 198.877C200.887 198.699 200.529 198.451 200.229 198.132C199.932 197.813 199.704 197.435 199.545 196.997C199.385 196.56 199.306 196.081 199.306 195.562V195.274C199.306 194.673 199.395 194.137 199.572 193.668C199.75 193.194 199.992 192.793 200.297 192.465C200.602 192.137 200.949 191.888 201.336 191.72C201.723 191.551 202.124 191.467 202.539 191.467C203.068 191.467 203.523 191.558 203.906 191.74C204.294 191.923 204.61 192.178 204.856 192.506C205.103 192.829 205.285 193.212 205.403 193.654C205.522 194.092 205.581 194.57 205.581 195.09V195.657H200.058V194.625H204.316V194.529C204.298 194.201 204.23 193.882 204.111 193.572C203.997 193.262 203.815 193.007 203.564 192.807C203.314 192.606 202.972 192.506 202.539 192.506C202.252 192.506 201.988 192.567 201.746 192.69C201.505 192.809 201.297 192.987 201.124 193.224C200.951 193.461 200.816 193.75 200.721 194.092C200.625 194.434 200.577 194.828 200.577 195.274V195.562C200.577 195.912 200.625 196.243 200.721 196.553C200.821 196.858 200.965 197.127 201.151 197.359C201.343 197.592 201.573 197.774 201.842 197.906C202.115 198.038 202.425 198.104 202.771 198.104C203.218 198.104 203.596 198.013 203.906 197.831C204.216 197.649 204.487 197.405 204.72 197.1L205.485 197.708C205.326 197.95 205.123 198.18 204.877 198.398C204.631 198.617 204.328 198.795 203.968 198.932C203.612 199.068 203.191 199.137 202.703 199.137ZM207.912 191.604L209.532 194.297L211.173 191.604H212.656L210.236 195.254L212.731 199H211.269L209.56 196.225L207.851 199H206.381L208.869 195.254L206.456 191.604H207.912ZM217.1 191.604V192.574H213.101V191.604H217.1ZM214.454 189.806H215.719V197.168C215.719 197.419 215.757 197.608 215.835 197.735C215.912 197.863 216.013 197.947 216.136 197.988C216.259 198.029 216.391 198.05 216.532 198.05C216.637 198.05 216.746 198.041 216.86 198.022C216.979 198 217.068 197.981 217.127 197.968L217.134 199C217.034 199.032 216.901 199.062 216.737 199.089C216.578 199.121 216.384 199.137 216.156 199.137C215.846 199.137 215.562 199.075 215.302 198.952C215.042 198.829 214.835 198.624 214.68 198.337C214.529 198.045 214.454 197.653 214.454 197.161V189.806Z" fill="white"/>
<rect x="254.5" y="181.5" width="52" height="25" rx="7.5" fill="#254D64" stroke="#254D64"/>
<path d="M271.833 189.047V199H270.534V189.047H271.833ZM275.032 189.047V190.127H267.342V189.047H275.032ZM278.703 199.137C278.188 199.137 277.721 199.05 277.302 198.877C276.887 198.699 276.529 198.451 276.229 198.132C275.932 197.813 275.704 197.435 275.545 196.997C275.385 196.56 275.306 196.081 275.306 195.562V195.274C275.306 194.673 275.395 194.137 275.572 193.668C275.75 193.194 275.992 192.793 276.297 192.465C276.602 192.137 276.949 191.888 277.336 191.72C277.723 191.551 278.124 191.467 278.539 191.467C279.068 191.467 279.523 191.558 279.906 191.74C280.294 191.923 280.61 192.178 280.856 192.506C281.103 192.829 281.285 193.212 281.403 193.654C281.522 194.092 281.581 194.57 281.581 195.09V195.657H276.058V194.625H280.316V194.529C280.298 194.201 280.23 193.882 280.111 193.572C279.997 193.262 279.815 193.007 279.564 192.807C279.314 192.606 278.972 192.506 278.539 192.506C278.252 192.506 277.988 192.567 277.746 192.69C277.505 192.809 277.297 192.987 277.124 193.224C276.951 193.461 276.816 193.75 276.721 194.092C276.625 194.434 276.577 194.828 276.577 195.274V195.562C276.577 195.912 276.625 196.243 276.721 196.553C276.821 196.858 276.965 197.127 277.151 197.359C277.343 197.592 277.573 197.774 277.842 197.906C278.115 198.038 278.425 198.104 278.771 198.104C279.218 198.104 279.596 198.013 279.906 197.831C280.216 197.649 280.487 197.405 280.72 197.1L281.485 197.708C281.326 197.95 281.123 198.18 280.877 198.398C280.631 198.617 280.328 198.795 279.968 198.932C279.612 199.068 279.191 199.137 278.703 199.137ZM283.912 191.604L285.532 194.297L287.173 191.604H288.656L286.236 195.254L288.731 199H287.269L285.56 196.225L283.851 199H282.381L284.869 195.254L282.456 191.604H283.912ZM293.1 191.604V192.574H289.101V191.604H293.1ZM290.454 189.806H291.719V197.168C291.719 197.419 291.757 197.608 291.835 197.735C291.912 197.863 292.013 197.947 292.136 197.988C292.259 198.029 292.391 198.05 292.532 198.05C292.637 198.05 292.746 198.041 292.86 198.022C292.979 198 293.068 197.981 293.127 197.968L293.134 199C293.034 199.032 292.901 199.062 292.737 199.089C292.578 199.121 292.384 199.137 292.156 199.137C291.846 199.137 291.562 199.075 291.302 198.952C291.042 198.829 290.835 198.624 290.68 198.337C290.529 198.045 290.454 197.653 290.454 197.161V189.806Z" fill="#DAEFFB"/>
<path d="M37.8223 161.77V154H38.9121V163H37.916L37.8223 161.77ZM33.5566 159.9V159.777C33.5566 159.293 33.6152 158.854 33.7324 158.459C33.8535 158.061 34.0234 157.719 34.2422 157.434C34.4648 157.148 34.7285 156.93 35.0332 156.777C35.3418 156.621 35.6855 156.543 36.0645 156.543C36.4629 156.543 36.8105 156.613 37.1074 156.754C37.4082 156.891 37.6621 157.092 37.8691 157.357C38.0801 157.619 38.2461 157.936 38.3672 158.307C38.4883 158.678 38.5723 159.098 38.6191 159.566V160.105C38.5762 160.57 38.4922 160.988 38.3672 161.359C38.2461 161.73 38.0801 162.047 37.8691 162.309C37.6621 162.57 37.4082 162.771 37.1074 162.912C36.8066 163.049 36.4551 163.117 36.0527 163.117C35.6816 163.117 35.3418 163.037 35.0332 162.877C34.7285 162.717 34.4648 162.492 34.2422 162.203C34.0234 161.914 33.8535 161.574 33.7324 161.184C33.6152 160.789 33.5566 160.361 33.5566 159.9ZM34.6465 159.777V159.9C34.6465 160.217 34.6777 160.514 34.7402 160.791C34.8066 161.068 34.9082 161.312 35.0449 161.523C35.1816 161.734 35.3555 161.9 35.5664 162.021C35.7773 162.139 36.0293 162.197 36.3223 162.197C36.6816 162.197 36.9766 162.121 37.207 161.969C37.4414 161.816 37.6289 161.615 37.7695 161.365C37.9102 161.115 38.0195 160.844 38.0977 160.551V159.139C38.0508 158.924 37.9824 158.717 37.8926 158.518C37.8066 158.314 37.6934 158.135 37.5527 157.979C37.416 157.818 37.2461 157.691 37.043 157.598C36.8438 157.504 36.6074 157.457 36.334 157.457C36.0371 157.457 35.7812 157.52 35.5664 157.645C35.3555 157.766 35.1816 157.934 35.0449 158.148C34.9082 158.359 34.8066 158.605 34.7402 158.887C34.6777 159.164 34.6465 159.461 34.6465 159.777ZM41.7773 156.66V163H40.6875V156.66H41.7773ZM40.6055 154.979C40.6055 154.803 40.6582 154.654 40.7637 154.533C40.873 154.412 41.0332 154.352 41.2441 154.352C41.4512 154.352 41.6094 154.412 41.7188 154.533C41.832 154.654 41.8887 154.803 41.8887 154.979C41.8887 155.146 41.832 155.291 41.7188 155.412C41.6094 155.529 41.4512 155.588 41.2441 155.588C41.0332 155.588 40.873 155.529 40.7637 155.412C40.6582 155.291 40.6055 155.146 40.6055 154.979ZM47.209 161.318C47.209 161.162 47.1738 161.018 47.1035 160.885C47.0371 160.748 46.8984 160.625 46.6875 160.516C46.4805 160.402 46.168 160.305 45.75 160.223C45.3984 160.148 45.0801 160.061 44.7949 159.959C44.5137 159.857 44.2734 159.734 44.0742 159.59C43.8789 159.445 43.7285 159.275 43.623 159.08C43.5176 158.885 43.4648 158.656 43.4648 158.395C43.4648 158.145 43.5195 157.908 43.6289 157.686C43.7422 157.463 43.9004 157.266 44.1035 157.094C44.3105 156.922 44.5586 156.787 44.8477 156.689C45.1367 156.592 45.459 156.543 45.8145 156.543C46.3223 156.543 46.7559 156.633 47.1152 156.812C47.4746 156.992 47.75 157.232 47.9414 157.533C48.1328 157.83 48.2285 158.16 48.2285 158.523H47.1445C47.1445 158.348 47.0918 158.178 46.9863 158.014C46.8848 157.846 46.7344 157.707 46.5352 157.598C46.3398 157.488 46.0996 157.434 45.8145 157.434C45.5137 157.434 45.2695 157.48 45.082 157.574C44.8984 157.664 44.7637 157.779 44.6777 157.92C44.5957 158.061 44.5547 158.209 44.5547 158.365C44.5547 158.482 44.5742 158.588 44.6133 158.682C44.6562 158.771 44.7305 158.855 44.8359 158.934C44.9414 159.008 45.0898 159.078 45.2812 159.145C45.4727 159.211 45.7168 159.277 46.0137 159.344C46.5332 159.461 46.9609 159.602 47.2969 159.766C47.6328 159.93 47.8828 160.131 48.0469 160.369C48.2109 160.607 48.293 160.896 48.293 161.236C48.293 161.514 48.2344 161.768 48.1172 161.998C48.0039 162.229 47.8379 162.428 47.6191 162.596C47.4043 162.76 47.1465 162.889 46.8457 162.982C46.5488 163.072 46.2148 163.117 45.8438 163.117C45.2852 163.117 44.8125 163.018 44.4258 162.818C44.0391 162.619 43.7461 162.361 43.5469 162.045C43.3477 161.729 43.248 161.395 43.248 161.043H44.3379C44.3535 161.34 44.4395 161.576 44.5957 161.752C44.752 161.924 44.9434 162.047 45.1699 162.121C45.3965 162.191 45.6211 162.227 45.8438 162.227C46.1406 162.227 46.3887 162.188 46.5879 162.109C46.791 162.031 46.9453 161.924 47.0508 161.787C47.1562 161.65 47.209 161.494 47.209 161.318ZM53.4551 161.916V158.652C53.4551 158.402 53.4043 158.186 53.3027 158.002C53.2051 157.814 53.0566 157.67 52.8574 157.568C52.6582 157.467 52.4121 157.416 52.1191 157.416C51.8457 157.416 51.6055 157.463 51.3984 157.557C51.1953 157.65 51.0352 157.773 50.918 157.926C50.8047 158.078 50.748 158.242 50.748 158.418H49.6641C49.6641 158.191 49.7227 157.967 49.8398 157.744C49.957 157.521 50.125 157.32 50.3438 157.141C50.5664 156.957 50.832 156.812 51.1406 156.707C51.4531 156.598 51.8008 156.543 52.1836 156.543C52.6445 156.543 53.0508 156.621 53.4023 156.777C53.7578 156.934 54.0352 157.17 54.2344 157.486C54.4375 157.799 54.5391 158.191 54.5391 158.664V161.617C54.5391 161.828 54.5566 162.053 54.5918 162.291C54.6309 162.529 54.6875 162.734 54.7617 162.906V163H53.6309C53.5762 162.875 53.5332 162.709 53.502 162.502C53.4707 162.291 53.4551 162.096 53.4551 161.916ZM53.6426 159.156L53.6543 159.918H52.5586C52.25 159.918 51.9746 159.943 51.7324 159.994C51.4902 160.041 51.2871 160.113 51.123 160.211C50.959 160.309 50.834 160.432 50.748 160.58C50.6621 160.725 50.6191 160.895 50.6191 161.09C50.6191 161.289 50.6641 161.471 50.7539 161.635C50.8438 161.799 50.9785 161.93 51.1582 162.027C51.3418 162.121 51.5664 162.168 51.832 162.168C52.1641 162.168 52.457 162.098 52.7109 161.957C52.9648 161.816 53.166 161.645 53.3145 161.441C53.4668 161.238 53.5488 161.041 53.5605 160.85L54.0234 161.371C53.9961 161.535 53.9219 161.717 53.8008 161.916C53.6797 162.115 53.5176 162.307 53.3145 162.49C53.1152 162.67 52.877 162.82 52.5996 162.941C52.3262 163.059 52.0176 163.117 51.6738 163.117C51.2441 163.117 50.8672 163.033 50.543 162.865C50.2227 162.697 49.9727 162.473 49.793 162.191C49.6172 161.906 49.5293 161.588 49.5293 161.236C49.5293 160.896 49.5957 160.598 49.7285 160.34C49.8613 160.078 50.0527 159.861 50.3027 159.689C50.5527 159.514 50.8535 159.381 51.2051 159.291C51.5566 159.201 51.9492 159.156 52.3828 159.156H53.6426ZM56.2383 154H57.3281V161.77L57.2344 163H56.2383V154ZM61.6113 159.777V159.9C61.6113 160.361 61.5566 160.789 61.4473 161.184C61.3379 161.574 61.1777 161.914 60.9668 162.203C60.7559 162.492 60.498 162.717 60.1934 162.877C59.8887 163.037 59.5391 163.117 59.1445 163.117C58.7422 163.117 58.3887 163.049 58.084 162.912C57.7832 162.771 57.5293 162.57 57.3223 162.309C57.1152 162.047 56.9492 161.73 56.8242 161.359C56.7031 160.988 56.6191 160.57 56.5723 160.105V159.566C56.6191 159.098 56.7031 158.678 56.8242 158.307C56.9492 157.936 57.1152 157.619 57.3223 157.357C57.5293 157.092 57.7832 156.891 58.084 156.754C58.3848 156.613 58.7344 156.543 59.1328 156.543C59.5312 156.543 59.8848 156.621 60.1934 156.777C60.502 156.93 60.7598 157.148 60.9668 157.434C61.1777 157.719 61.3379 158.061 61.4473 158.459C61.5566 158.854 61.6113 159.293 61.6113 159.777ZM60.5215 159.9V159.777C60.5215 159.461 60.4922 159.164 60.4336 158.887C60.375 158.605 60.2812 158.359 60.1523 158.148C60.0234 157.934 59.8535 157.766 59.6426 157.645C59.4316 157.52 59.1719 157.457 58.8633 157.457C58.5898 157.457 58.3516 157.504 58.1484 157.598C57.9492 157.691 57.7793 157.818 57.6387 157.979C57.498 158.135 57.3828 158.314 57.293 158.518C57.207 158.717 57.1426 158.924 57.0996 159.139V160.551C57.1621 160.824 57.2637 161.088 57.4043 161.342C57.5488 161.592 57.7402 161.797 57.9785 161.957C58.2207 162.117 58.5195 162.197 58.875 162.197C59.168 162.197 59.418 162.139 59.625 162.021C59.8359 161.9 60.0059 161.734 60.1348 161.523C60.2676 161.312 60.3652 161.068 60.4277 160.791C60.4902 160.514 60.5215 160.217 60.5215 159.9ZM64.1602 154V163H63.0703V154H64.1602ZM68.5312 163.117C68.0898 163.117 67.6895 163.043 67.3301 162.895C66.9746 162.742 66.668 162.529 66.4102 162.256C66.1562 161.982 65.9609 161.658 65.8242 161.283C65.6875 160.908 65.6191 160.498 65.6191 160.053V159.807C65.6191 159.291 65.6953 158.832 65.8477 158.43C66 158.023 66.207 157.68 66.4688 157.398C66.7305 157.117 67.0273 156.904 67.3594 156.76C67.6914 156.615 68.0352 156.543 68.3906 156.543C68.8438 156.543 69.2344 156.621 69.5625 156.777C69.8945 156.934 70.166 157.152 70.377 157.434C70.5879 157.711 70.7441 158.039 70.8457 158.418C70.9473 158.793 70.998 159.203 70.998 159.648V160.135H66.2637V159.25H69.9141V159.168C69.8984 158.887 69.8398 158.613 69.7383 158.348C69.6406 158.082 69.4844 157.863 69.2695 157.691C69.0547 157.52 68.7617 157.434 68.3906 157.434C68.1445 157.434 67.918 157.486 67.7109 157.592C67.5039 157.693 67.3262 157.846 67.1777 158.049C67.0293 158.252 66.9141 158.5 66.832 158.793C66.75 159.086 66.709 159.424 66.709 159.807V160.053C66.709 160.354 66.75 160.637 66.832 160.902C66.918 161.164 67.041 161.395 67.2012 161.594C67.3652 161.793 67.5625 161.949 67.793 162.062C68.0273 162.176 68.293 162.232 68.5898 162.232C68.9727 162.232 69.2969 162.154 69.5625 161.998C69.8281 161.842 70.0605 161.633 70.2598 161.371L70.916 161.893C70.7793 162.1 70.6055 162.297 70.3945 162.484C70.1836 162.672 69.9238 162.824 69.6152 162.941C69.3105 163.059 68.9492 163.117 68.5312 163.117Z" fill="black"/>
<path d="M110.91 158.014V163H109.826V156.66H110.852L110.91 158.014ZM110.652 159.59L110.201 159.572C110.205 159.139 110.27 158.738 110.395 158.371C110.52 158 110.695 157.678 110.922 157.404C111.148 157.131 111.418 156.92 111.73 156.771C112.047 156.619 112.396 156.543 112.779 156.543C113.092 156.543 113.373 156.586 113.623 156.672C113.873 156.754 114.086 156.887 114.262 157.07C114.441 157.254 114.578 157.492 114.672 157.785C114.766 158.074 114.812 158.428 114.812 158.846V163H113.723V158.834C113.723 158.502 113.674 158.236 113.576 158.037C113.479 157.834 113.336 157.688 113.148 157.598C112.961 157.504 112.73 157.457 112.457 157.457C112.188 157.457 111.941 157.514 111.719 157.627C111.5 157.74 111.311 157.896 111.15 158.096C110.994 158.295 110.871 158.523 110.781 158.781C110.695 159.035 110.652 159.305 110.652 159.59ZM116.172 159.9V159.766C116.172 159.309 116.238 158.885 116.371 158.494C116.504 158.1 116.695 157.758 116.945 157.469C117.195 157.176 117.498 156.949 117.854 156.789C118.209 156.625 118.607 156.543 119.049 156.543C119.494 156.543 119.895 156.625 120.25 156.789C120.609 156.949 120.914 157.176 121.164 157.469C121.418 157.758 121.611 158.1 121.744 158.494C121.877 158.885 121.943 159.309 121.943 159.766V159.9C121.943 160.357 121.877 160.781 121.744 161.172C121.611 161.562 121.418 161.904 121.164 162.197C120.914 162.486 120.611 162.713 120.256 162.877C119.904 163.037 119.506 163.117 119.061 163.117C118.615 163.117 118.215 163.037 117.859 162.877C117.504 162.713 117.199 162.486 116.945 162.197C116.695 161.904 116.504 161.562 116.371 161.172C116.238 160.781 116.172 160.357 116.172 159.9ZM117.256 159.766V159.9C117.256 160.217 117.293 160.516 117.367 160.797C117.441 161.074 117.553 161.32 117.701 161.535C117.854 161.75 118.043 161.92 118.27 162.045C118.496 162.166 118.76 162.227 119.061 162.227C119.357 162.227 119.617 162.166 119.84 162.045C120.066 161.92 120.254 161.75 120.402 161.535C120.551 161.32 120.662 161.074 120.736 160.797C120.814 160.516 120.854 160.217 120.854 159.9V159.766C120.854 159.453 120.814 159.158 120.736 158.881C120.662 158.6 120.549 158.352 120.396 158.137C120.248 157.918 120.061 157.746 119.834 157.621C119.611 157.496 119.35 157.434 119.049 157.434C118.752 157.434 118.49 157.496 118.264 157.621C118.041 157.746 117.854 157.918 117.701 158.137C117.553 158.352 117.441 158.6 117.367 158.881C117.293 159.158 117.256 159.453 117.256 159.766ZM124.387 157.656V163H123.303V156.66H124.357L124.387 157.656ZM126.367 156.625L126.361 157.633C126.271 157.613 126.186 157.602 126.104 157.598C126.025 157.59 125.936 157.586 125.834 157.586C125.584 157.586 125.363 157.625 125.172 157.703C124.98 157.781 124.818 157.891 124.686 158.031C124.553 158.172 124.447 158.34 124.369 158.535C124.295 158.727 124.246 158.938 124.223 159.168L123.918 159.344C123.918 158.961 123.955 158.602 124.029 158.266C124.107 157.93 124.227 157.633 124.387 157.375C124.547 157.113 124.75 156.91 124.996 156.766C125.246 156.617 125.543 156.543 125.887 156.543C125.965 156.543 126.055 156.553 126.156 156.572C126.258 156.588 126.328 156.605 126.367 156.625ZM128.447 157.92V163H127.357V156.66H128.389L128.447 157.92ZM128.225 159.59L127.721 159.572C127.725 159.139 127.781 158.738 127.891 158.371C128 158 128.162 157.678 128.377 157.404C128.592 157.131 128.859 156.92 129.18 156.771C129.5 156.619 129.871 156.543 130.293 156.543C130.59 156.543 130.863 156.586 131.113 156.672C131.363 156.754 131.58 156.885 131.764 157.064C131.947 157.244 132.09 157.475 132.191 157.756C132.293 158.037 132.344 158.377 132.344 158.775V163H131.26V158.828C131.26 158.496 131.203 158.23 131.09 158.031C130.98 157.832 130.824 157.688 130.621 157.598C130.418 157.504 130.18 157.457 129.906 157.457C129.586 157.457 129.318 157.514 129.104 157.627C128.889 157.74 128.717 157.896 128.588 158.096C128.459 158.295 128.365 158.523 128.307 158.781C128.252 159.035 128.225 159.305 128.225 159.59ZM132.332 158.992L131.605 159.215C131.609 158.867 131.666 158.533 131.775 158.213C131.889 157.893 132.051 157.607 132.262 157.357C132.477 157.107 132.74 156.91 133.053 156.766C133.365 156.617 133.723 156.543 134.125 156.543C134.465 156.543 134.766 156.588 135.027 156.678C135.293 156.768 135.516 156.906 135.695 157.094C135.879 157.277 136.018 157.514 136.111 157.803C136.205 158.092 136.252 158.436 136.252 158.834V163H135.162V158.822C135.162 158.467 135.105 158.191 134.992 157.996C134.883 157.797 134.727 157.658 134.523 157.58C134.324 157.498 134.086 157.457 133.809 157.457C133.57 157.457 133.359 157.498 133.176 157.58C132.992 157.662 132.838 157.775 132.713 157.92C132.588 158.061 132.492 158.223 132.426 158.406C132.363 158.59 132.332 158.785 132.332 158.992ZM141.631 161.916V158.652C141.631 158.402 141.58 158.186 141.479 158.002C141.381 157.814 141.232 157.67 141.033 157.568C140.834 157.467 140.588 157.416 140.295 157.416C140.021 157.416 139.781 157.463 139.574 157.557C139.371 157.65 139.211 157.773 139.094 157.926C138.98 158.078 138.924 158.242 138.924 158.418H137.84C137.84 158.191 137.898 157.967 138.016 157.744C138.133 157.521 138.301 157.32 138.52 157.141C138.742 156.957 139.008 156.812 139.316 156.707C139.629 156.598 139.977 156.543 140.359 156.543C140.82 156.543 141.227 156.621 141.578 156.777C141.934 156.934 142.211 157.17 142.41 157.486C142.613 157.799 142.715 158.191 142.715 158.664V161.617C142.715 161.828 142.732 162.053 142.768 162.291C142.807 162.529 142.863 162.734 142.938 162.906V163H141.807C141.752 162.875 141.709 162.709 141.678 162.502C141.646 162.291 141.631 162.096 141.631 161.916ZM141.818 159.156L141.83 159.918H140.734C140.426 159.918 140.15 159.943 139.908 159.994C139.666 160.041 139.463 160.113 139.299 160.211C139.135 160.309 139.01 160.432 138.924 160.58C138.838 160.725 138.795 160.895 138.795 161.09C138.795 161.289 138.84 161.471 138.93 161.635C139.02 161.799 139.154 161.93 139.334 162.027C139.518 162.121 139.742 162.168 140.008 162.168C140.34 162.168 140.633 162.098 140.887 161.957C141.141 161.816 141.342 161.645 141.49 161.441C141.643 161.238 141.725 161.041 141.736 160.85L142.199 161.371C142.172 161.535 142.098 161.717 141.977 161.916C141.855 162.115 141.693 162.307 141.49 162.49C141.291 162.67 141.053 162.82 140.775 162.941C140.502 163.059 140.193 163.117 139.85 163.117C139.42 163.117 139.043 163.033 138.719 162.865C138.398 162.697 138.148 162.473 137.969 162.191C137.793 161.906 137.705 161.588 137.705 161.236C137.705 160.896 137.771 160.598 137.904 160.34C138.037 160.078 138.229 159.861 138.479 159.689C138.729 159.514 139.029 159.381 139.381 159.291C139.732 159.201 140.125 159.156 140.559 159.156H141.818ZM145.598 154V163H144.508V154H145.598Z" fill="black"/>
<path d="M191.91 154V163H190.826V154H191.91ZM191.652 159.59L191.201 159.572C191.205 159.139 191.27 158.738 191.395 158.371C191.52 158 191.695 157.678 191.922 157.404C192.148 157.131 192.418 156.92 192.73 156.771C193.047 156.619 193.396 156.543 193.779 156.543C194.092 156.543 194.373 156.586 194.623 156.672C194.873 156.754 195.086 156.887 195.262 157.07C195.441 157.254 195.578 157.492 195.672 157.785C195.766 158.074 195.812 158.428 195.812 158.846V163H194.723V158.834C194.723 158.502 194.674 158.236 194.576 158.037C194.479 157.834 194.336 157.688 194.148 157.598C193.961 157.504 193.73 157.457 193.457 157.457C193.188 157.457 192.941 157.514 192.719 157.627C192.5 157.74 192.311 157.896 192.15 158.096C191.994 158.295 191.871 158.523 191.781 158.781C191.695 159.035 191.652 159.305 191.652 159.59ZM197.148 159.9V159.766C197.148 159.309 197.215 158.885 197.348 158.494C197.48 158.1 197.672 157.758 197.922 157.469C198.172 157.176 198.475 156.949 198.83 156.789C199.186 156.625 199.584 156.543 200.025 156.543C200.471 156.543 200.871 156.625 201.227 156.789C201.586 156.949 201.891 157.176 202.141 157.469C202.395 157.758 202.588 158.1 202.721 158.494C202.854 158.885 202.92 159.309 202.92 159.766V159.9C202.92 160.357 202.854 160.781 202.721 161.172C202.588 161.562 202.395 161.904 202.141 162.197C201.891 162.486 201.588 162.713 201.232 162.877C200.881 163.037 200.482 163.117 200.037 163.117C199.592 163.117 199.191 163.037 198.836 162.877C198.48 162.713 198.176 162.486 197.922 162.197C197.672 161.904 197.48 161.562 197.348 161.172C197.215 160.781 197.148 160.357 197.148 159.9ZM198.232 159.766V159.9C198.232 160.217 198.27 160.516 198.344 160.797C198.418 161.074 198.529 161.32 198.678 161.535C198.83 161.75 199.02 161.92 199.246 162.045C199.473 162.166 199.736 162.227 200.037 162.227C200.334 162.227 200.594 162.166 200.816 162.045C201.043 161.92 201.23 161.75 201.379 161.535C201.527 161.32 201.639 161.074 201.713 160.797C201.791 160.516 201.83 160.217 201.83 159.9V159.766C201.83 159.453 201.791 159.158 201.713 158.881C201.639 158.6 201.525 158.352 201.373 158.137C201.225 157.918 201.037 157.746 200.811 157.621C200.588 157.496 200.326 157.434 200.025 157.434C199.729 157.434 199.467 157.496 199.24 157.621C199.018 157.746 198.83 157.918 198.678 158.137C198.529 158.352 198.418 158.6 198.344 158.881C198.27 159.158 198.232 159.453 198.232 159.766ZM206.113 162.021L207.848 156.66H208.955L206.676 163H205.949L206.113 162.021ZM204.666 156.66L206.453 162.051L206.576 163H205.85L203.553 156.66H204.666ZM212.547 163.117C212.105 163.117 211.705 163.043 211.346 162.895C210.99 162.742 210.684 162.529 210.426 162.256C210.172 161.982 209.977 161.658 209.84 161.283C209.703 160.908 209.635 160.498 209.635 160.053V159.807C209.635 159.291 209.711 158.832 209.863 158.43C210.016 158.023 210.223 157.68 210.484 157.398C210.746 157.117 211.043 156.904 211.375 156.76C211.707 156.615 212.051 156.543 212.406 156.543C212.859 156.543 213.25 156.621 213.578 156.777C213.91 156.934 214.182 157.152 214.393 157.434C214.604 157.711 214.76 158.039 214.861 158.418C214.963 158.793 215.014 159.203 215.014 159.648V160.135H210.279V159.25H213.93V159.168C213.914 158.887 213.855 158.613 213.754 158.348C213.656 158.082 213.5 157.863 213.285 157.691C213.07 157.52 212.777 157.434 212.406 157.434C212.16 157.434 211.934 157.486 211.727 157.592C211.52 157.693 211.342 157.846 211.193 158.049C211.045 158.252 210.93 158.5 210.848 158.793C210.766 159.086 210.725 159.424 210.725 159.807V160.053C210.725 160.354 210.766 160.637 210.848 160.902C210.934 161.164 211.057 161.395 211.217 161.594C211.381 161.793 211.578 161.949 211.809 162.062C212.043 162.176 212.309 162.232 212.605 162.232C212.988 162.232 213.312 162.154 213.578 161.998C213.844 161.842 214.076 161.633 214.275 161.371L214.932 161.893C214.795 162.1 214.621 162.297 214.41 162.484C214.199 162.672 213.939 162.824 213.631 162.941C213.326 163.059 212.965 163.117 212.547 163.117ZM217.363 157.656V163H216.279V156.66H217.334L217.363 157.656ZM219.344 156.625L219.338 157.633C219.248 157.613 219.162 157.602 219.08 157.598C219.002 157.59 218.912 157.586 218.811 157.586C218.561 157.586 218.34 157.625 218.148 157.703C217.957 157.781 217.795 157.891 217.662 158.031C217.529 158.172 217.424 158.34 217.346 158.535C217.271 158.727 217.223 158.938 217.199 159.168L216.895 159.344C216.895 158.961 216.932 158.602 217.006 158.266C217.084 157.93 217.203 157.633 217.363 157.375C217.523 157.113 217.727 156.91 217.973 156.766C218.223 156.617 218.52 156.543 218.863 156.543C218.941 156.543 219.031 156.553 219.133 156.572C219.234 156.588 219.305 156.605 219.344 156.625Z" fill="black"/>
<path d="M267.443 163H266.359V155.992C266.359 155.535 266.441 155.15 266.605 154.838C266.773 154.521 267.014 154.283 267.326 154.123C267.639 153.959 268.01 153.877 268.439 153.877C268.564 153.877 268.689 153.885 268.814 153.9C268.943 153.916 269.068 153.939 269.189 153.971L269.131 154.855C269.049 154.836 268.955 154.822 268.85 154.814C268.748 154.807 268.646 154.803 268.545 154.803C268.314 154.803 268.115 154.85 267.947 154.943C267.783 155.033 267.658 155.166 267.572 155.342C267.486 155.518 267.443 155.734 267.443 155.992V163ZM268.791 156.66V157.492H265.357V156.66H268.791ZM269.711 159.9V159.766C269.711 159.309 269.777 158.885 269.91 158.494C270.043 158.1 270.234 157.758 270.484 157.469C270.734 157.176 271.037 156.949 271.393 156.789C271.748 156.625 272.146 156.543 272.588 156.543C273.033 156.543 273.434 156.625 273.789 156.789C274.148 156.949 274.453 157.176 274.703 157.469C274.957 157.758 275.15 158.1 275.283 158.494C275.416 158.885 275.482 159.309 275.482 159.766V159.9C275.482 160.357 275.416 160.781 275.283 161.172C275.15 161.562 274.957 161.904 274.703 162.197C274.453 162.486 274.15 162.713 273.795 162.877C273.443 163.037 273.045 163.117 272.6 163.117C272.154 163.117 271.754 163.037 271.398 162.877C271.043 162.713 270.738 162.486 270.484 162.197C270.234 161.904 270.043 161.562 269.91 161.172C269.777 160.781 269.711 160.357 269.711 159.9ZM270.795 159.766V159.9C270.795 160.217 270.832 160.516 270.906 160.797C270.98 161.074 271.092 161.32 271.24 161.535C271.393 161.75 271.582 161.92 271.809 162.045C272.035 162.166 272.299 162.227 272.6 162.227C272.896 162.227 273.156 162.166 273.379 162.045C273.605 161.92 273.793 161.75 273.941 161.535C274.09 161.32 274.201 161.074 274.275 160.797C274.354 160.516 274.393 160.217 274.393 159.9V159.766C274.393 159.453 274.354 159.158 274.275 158.881C274.201 158.6 274.088 158.352 273.936 158.137C273.787 157.918 273.6 157.746 273.373 157.621C273.15 157.496 272.889 157.434 272.588 157.434C272.291 157.434 272.029 157.496 271.803 157.621C271.58 157.746 271.393 157.918 271.24 158.137C271.092 158.352 270.98 158.6 270.906 158.881C270.832 159.158 270.795 159.453 270.795 159.766ZM279.379 162.227C279.637 162.227 279.875 162.174 280.094 162.068C280.312 161.963 280.492 161.818 280.633 161.635C280.773 161.447 280.854 161.234 280.873 160.996H281.904C281.885 161.371 281.758 161.721 281.523 162.045C281.293 162.365 280.99 162.625 280.615 162.824C280.24 163.02 279.828 163.117 279.379 163.117C278.902 163.117 278.486 163.033 278.131 162.865C277.779 162.697 277.486 162.467 277.252 162.174C277.021 161.881 276.848 161.545 276.73 161.166C276.617 160.783 276.561 160.379 276.561 159.953V159.707C276.561 159.281 276.617 158.879 276.73 158.5C276.848 158.117 277.021 157.779 277.252 157.486C277.486 157.193 277.779 156.963 278.131 156.795C278.486 156.627 278.902 156.543 279.379 156.543C279.875 156.543 280.309 156.645 280.68 156.848C281.051 157.047 281.342 157.32 281.553 157.668C281.768 158.012 281.885 158.402 281.904 158.84H280.873C280.854 158.578 280.779 158.342 280.65 158.131C280.525 157.92 280.354 157.752 280.135 157.627C279.92 157.498 279.668 157.434 279.379 157.434C279.047 157.434 278.768 157.5 278.541 157.633C278.318 157.762 278.141 157.938 278.008 158.16C277.879 158.379 277.785 158.623 277.727 158.893C277.672 159.158 277.645 159.43 277.645 159.707V159.953C277.645 160.23 277.672 160.504 277.727 160.773C277.781 161.043 277.873 161.287 278.002 161.506C278.135 161.725 278.312 161.9 278.535 162.033C278.762 162.162 279.043 162.227 279.379 162.227ZM287.002 161.535V156.66H288.092V163H287.055L287.002 161.535ZM287.207 160.199L287.658 160.188C287.658 160.609 287.613 161 287.523 161.359C287.438 161.715 287.297 162.023 287.102 162.285C286.906 162.547 286.65 162.752 286.334 162.9C286.018 163.045 285.633 163.117 285.18 163.117C284.871 163.117 284.588 163.072 284.33 162.982C284.076 162.893 283.857 162.754 283.674 162.566C283.49 162.379 283.348 162.135 283.246 161.834C283.148 161.533 283.1 161.172 283.1 160.75V156.66H284.184V160.762C284.184 161.047 284.215 161.283 284.277 161.471C284.344 161.654 284.432 161.801 284.541 161.91C284.654 162.016 284.779 162.09 284.916 162.133C285.057 162.176 285.201 162.197 285.35 162.197C285.811 162.197 286.176 162.109 286.445 161.934C286.715 161.754 286.908 161.514 287.025 161.213C287.146 160.908 287.207 160.57 287.207 160.199ZM293.436 161.318C293.436 161.162 293.4 161.018 293.33 160.885C293.264 160.748 293.125 160.625 292.914 160.516C292.707 160.402 292.395 160.305 291.977 160.223C291.625 160.148 291.307 160.061 291.021 159.959C290.74 159.857 290.5 159.734 290.301 159.59C290.105 159.445 289.955 159.275 289.85 159.08C289.744 158.885 289.691 158.656 289.691 158.395C289.691 158.145 289.746 157.908 289.855 157.686C289.969 157.463 290.127 157.266 290.33 157.094C290.537 156.922 290.785 156.787 291.074 156.689C291.363 156.592 291.686 156.543 292.041 156.543C292.549 156.543 292.982 156.633 293.342 156.812C293.701 156.992 293.977 157.232 294.168 157.533C294.359 157.83 294.455 158.16 294.455 158.523H293.371C293.371 158.348 293.318 158.178 293.213 158.014C293.111 157.846 292.961 157.707 292.762 157.598C292.566 157.488 292.326 157.434 292.041 157.434C291.74 157.434 291.496 157.48 291.309 157.574C291.125 157.664 290.99 157.779 290.904 157.92C290.822 158.061 290.781 158.209 290.781 158.365C290.781 158.482 290.801 158.588 290.84 158.682C290.883 158.771 290.957 158.855 291.062 158.934C291.168 159.008 291.316 159.078 291.508 159.145C291.699 159.211 291.943 159.277 292.24 159.344C292.76 159.461 293.188 159.602 293.523 159.766C293.859 159.93 294.109 160.131 294.273 160.369C294.438 160.607 294.52 160.896 294.52 161.236C294.52 161.514 294.461 161.768 294.344 161.998C294.23 162.229 294.064 162.428 293.846 162.596C293.631 162.76 293.373 162.889 293.072 162.982C292.775 163.072 292.441 163.117 292.07 163.117C291.512 163.117 291.039 163.018 290.652 162.818C290.266 162.619 289.973 162.361 289.773 162.045C289.574 161.729 289.475 161.395 289.475 161.043H290.564C290.58 161.34 290.666 161.576 290.822 161.752C290.979 161.924 291.17 162.047 291.396 162.121C291.623 162.191 291.848 162.227 292.07 162.227C292.367 162.227 292.615 162.188 292.814 162.109C293.018 162.031 293.172 161.924 293.277 161.787C293.383 161.65 293.436 161.494 293.436 161.318Z" fill="black"/>
</svg>
