<svg width="129" height="46" viewBox="0 0 129 46" fill="none" xmlns="http://www.w3.org/2000/svg">
<rect width="129" height="46" fill="white"/>
<path d="M56 29.8678H71V32H56V29.8678ZM71 20.3471L63.5 27.7355L56 20.3471H60.2785V14H66.7215V20.3471H71Z" fill="#4D88A9"/>
<path d="M34.1667 26.7059C34.934 26.7059 35.5833 26.9741 36.1146 27.5106C36.6458 28.0188 36.9115 28.6259 36.9115 29.3318C36.9115 30.0659 36.6311 30.7012 36.0703 31.2376C35.5391 31.7459 34.9045 32 34.1667 32C33.4288 32 32.7795 31.7459 32.2188 31.2376C31.6875 30.7012 31.4219 30.0659 31.4219 29.3318C31.4219 29.0494 31.4366 28.8518 31.4661 28.7388L24.7812 25.0118C24.2205 25.4918 23.5712 25.7318 22.8333 25.7318C22.066 25.7318 21.4019 25.4635 20.8411 24.9271C20.2804 24.3906 20 23.7553 20 23.0212C20 22.2871 20.2804 21.6518 20.8411 21.1153C21.4019 20.5788 22.066 20.3106 22.8333 20.3106C23.5712 20.3106 24.2205 20.5506 24.7812 21.0306L31.4219 17.3459C31.3628 17.0635 31.3333 16.8518 31.3333 16.7106C31.3333 15.9765 31.6137 15.3412 32.1745 14.8047C32.7352 14.2682 33.3993 14 34.1667 14C34.934 14 35.5981 14.2682 36.1589 14.8047C36.7196 15.3412 37 15.9765 37 16.7106C37 17.4447 36.7196 18.08 36.1589 18.6165C35.5981 19.1529 34.934 19.4212 34.1667 19.4212C33.4583 19.4212 32.809 19.1671 32.2188 18.6588L25.5781 22.3859C25.6372 22.6682 25.6667 22.88 25.6667 23.0212C25.6667 23.1624 25.6372 23.3741 25.5781 23.6565L32.3073 27.3835C32.8385 26.9318 33.4583 26.7059 34.1667 26.7059Z" fill="#4D88A9"/>
<path fill-rule="evenodd" clip-rule="evenodd" d="M109.833 18.8333H108.667V13H94.6667V18.8333H93.5C91.5633 18.8333 90 20.3967 90 22.3333V29.3333H94.6667V34H108.667V29.3333H113.333V22.3333C113.333 20.3967 111.77 18.8333 109.833 18.8333ZM97 15.3333H106.333V18.8333H97V15.3333ZM97 31.6667H106.333V27H97V31.6667ZM108.667 27V24.6667H94.6667V27H92.3333V22.3333C92.3333 21.6917 92.8583 21.1667 93.5 21.1667H109.833C110.475 21.1667 111 21.6917 111 22.3333V27H108.667ZM107.5 22.9167C107.5 22.2723 108.022 21.75 108.667 21.75C109.311 21.75 109.833 22.2723 109.833 22.9167C109.833 23.561 109.311 24.0833 108.667 24.0833C108.022 24.0833 107.5 23.561 107.5 22.9167Z" fill="#4D88A9"/>
</svg>
