<svg width="75" height="194" viewBox="0 0 75 194" fill="none" xmlns="http://www.w3.org/2000/svg">
<rect width="75" height="194" fill="white"/>
<path d="M21.833 169.047V179H20.5342V169.047H21.833ZM25.0322 169.047V170.127H17.3418V169.047H25.0322ZM28.7031 179.137C28.1882 179.137 27.721 179.05 27.3018 178.877C26.887 178.699 26.5293 178.451 26.2285 178.132C25.9323 177.813 25.7044 177.435 25.5449 176.997C25.3854 176.56 25.3057 176.081 25.3057 175.562V175.274C25.3057 174.673 25.3945 174.137 25.5723 173.668C25.75 173.194 25.9915 172.793 26.2969 172.465C26.6022 172.137 26.9486 171.888 27.3359 171.72C27.7233 171.551 28.1243 171.467 28.5391 171.467C29.0677 171.467 29.5234 171.558 29.9062 171.74C30.2936 171.923 30.6104 172.178 30.8564 172.506C31.1025 172.829 31.2848 173.212 31.4033 173.654C31.5218 174.092 31.5811 174.57 31.5811 175.09V175.657H26.0576V174.625H30.3164V174.529C30.2982 174.201 30.2298 173.882 30.1113 173.572C29.9974 173.262 29.8151 173.007 29.5645 172.807C29.3138 172.606 28.972 172.506 28.5391 172.506C28.252 172.506 27.9876 172.567 27.7461 172.69C27.5046 172.809 27.2972 172.987 27.124 173.224C26.9508 173.461 26.8164 173.75 26.7207 174.092C26.625 174.434 26.5771 174.828 26.5771 175.274V175.562C26.5771 175.912 26.625 176.243 26.7207 176.553C26.821 176.858 26.9645 177.127 27.1514 177.359C27.3428 177.592 27.5729 177.774 27.8418 177.906C28.1152 178.038 28.4251 178.104 28.7715 178.104C29.2181 178.104 29.5964 178.013 29.9062 177.831C30.2161 177.649 30.4873 177.405 30.7197 177.1L31.4854 177.708C31.3258 177.95 31.123 178.18 30.877 178.398C30.6309 178.617 30.3278 178.795 29.9678 178.932C29.6123 179.068 29.1908 179.137 28.7031 179.137ZM33.9121 171.604L35.5322 174.297L37.1729 171.604H38.6562L36.2363 175.254L38.7314 179H37.2686L35.5596 176.225L33.8506 179H32.3809L34.8691 175.254L32.4561 171.604H33.9121ZM43.0996 171.604V172.574H39.1006V171.604H43.0996ZM40.4541 169.806H41.7188V177.168C41.7188 177.419 41.7575 177.608 41.835 177.735C41.9124 177.863 42.0127 177.947 42.1357 177.988C42.2588 178.029 42.391 178.05 42.5322 178.05C42.637 178.05 42.7464 178.041 42.8604 178.022C42.9788 178 43.0677 177.981 43.127 177.968L43.1338 179C43.0335 179.032 42.9014 179.062 42.7373 179.089C42.5778 179.121 42.3841 179.137 42.1562 179.137C41.8464 179.137 41.5615 179.075 41.3018 178.952C41.042 178.829 40.8346 178.624 40.6797 178.337C40.5293 178.045 40.4541 177.653 40.4541 177.161V169.806Z" fill="white"/>
<path d="M21.833 169.047H22.333V168.547H21.833V169.047ZM21.833 179V179.5H22.333V179H21.833ZM20.5342 179H20.0342V179.5H20.5342V179ZM20.5342 169.047V168.547H20.0342V169.047H20.5342ZM25.0322 169.047H25.5322V168.547H25.0322V169.047ZM25.0322 170.127V170.627H25.5322V170.127H25.0322ZM17.3418 170.127H16.8418V170.627H17.3418V170.127ZM17.3418 169.047V168.547H16.8418V169.047H17.3418ZM21.333 169.047V179H22.333V169.047H21.333ZM21.833 178.5H20.5342V179.5H21.833V178.5ZM21.0342 179V169.047H20.0342V179H21.0342ZM20.5342 169.547H21.833V168.547H20.5342V169.547ZM24.5322 169.047V170.127H25.5322V169.047H24.5322ZM25.0322 169.627H17.3418V170.627H25.0322V169.627ZM17.8418 170.127V169.047H16.8418V170.127H17.8418ZM17.3418 169.547H25.0322V168.547H17.3418V169.547ZM27.3018 178.877L27.1048 179.337L27.1109 179.339L27.3018 178.877ZM26.2285 178.132L25.8621 178.472L25.8647 178.475L26.2285 178.132ZM25.5449 176.997L25.0752 177.168L25.5449 176.997ZM25.5723 173.668L26.0399 173.845L26.0404 173.844L25.5723 173.668ZM26.2969 172.465L25.9308 172.124L26.2969 172.465ZM29.9062 171.74L29.6913 172.192L29.6934 172.193L29.9062 171.74ZM30.8564 172.506L30.4564 172.806L30.4585 172.809L30.8564 172.506ZM31.4033 173.654L30.9204 173.784L30.9207 173.785L31.4033 173.654ZM31.5811 175.657V176.157H32.0811V175.657H31.5811ZM26.0576 175.657H25.5576V176.157H26.0576V175.657ZM26.0576 174.625V174.125H25.5576V174.625H26.0576ZM30.3164 174.625V175.125H30.8164V174.625H30.3164ZM30.3164 174.529H30.8164V174.515L30.8156 174.502L30.3164 174.529ZM30.1113 173.572L29.642 173.745L29.6443 173.751L30.1113 173.572ZM27.7461 172.69L27.9663 173.139L27.9731 173.136L27.7461 172.69ZM26.7207 176.553L26.2429 176.7L26.2457 176.709L26.7207 176.553ZM27.1514 177.359L26.7617 177.673L26.7654 177.677L27.1514 177.359ZM27.8418 177.906L27.6212 178.355L27.6242 178.356L27.8418 177.906ZM30.7197 177.1L31.0308 176.708L30.6311 176.391L30.3219 176.797L30.7197 177.1ZM31.4854 177.708L31.9026 177.984L32.1549 177.601L31.7964 177.317L31.4854 177.708ZM29.9678 178.932L29.7903 178.464L29.7883 178.465L29.9678 178.932ZM28.7031 178.637C28.2448 178.637 27.8437 178.56 27.4926 178.415L27.1109 179.339C27.5983 179.54 28.1315 179.637 28.7031 179.637V178.637ZM27.4987 178.417C27.1451 178.266 26.8447 178.056 26.5923 177.789L25.8647 178.475C26.2139 178.845 26.6289 179.133 27.1048 179.337L27.4987 178.417ZM26.5949 177.792C26.3472 177.525 26.153 177.205 26.0147 176.826L25.0752 177.168C25.2559 177.664 25.5174 178.101 25.8621 178.472L26.5949 177.792ZM26.0147 176.826C25.8774 176.449 25.8057 176.029 25.8057 175.562H24.8057C24.8057 176.133 24.8935 176.67 25.0752 177.168L26.0147 176.826ZM25.8057 175.562V175.274H24.8057V175.562H25.8057ZM25.8057 175.274C25.8057 174.722 25.8873 174.248 26.0399 173.845L25.1047 173.491C24.9017 174.027 24.8057 174.624 24.8057 175.274H25.8057ZM26.0404 173.844C26.1982 173.423 26.4075 173.08 26.6629 172.805L25.9308 172.124C25.5756 172.506 25.3018 172.965 25.1041 173.492L26.0404 173.844ZM26.6629 172.805C26.9243 172.525 27.2149 172.318 27.5355 172.178L27.1364 171.261C26.6822 171.459 26.2801 171.749 25.9308 172.124L26.6629 172.805ZM27.5355 172.178C27.8611 172.036 28.1943 171.967 28.5391 171.967V170.967C28.0544 170.967 27.5855 171.066 27.1364 171.261L27.5355 172.178ZM28.5391 171.967C29.0112 171.967 29.3901 172.048 29.6913 172.192L30.1212 171.289C29.6568 171.068 29.1242 170.967 28.5391 170.967V171.967ZM29.6934 172.193C30.0102 172.342 30.2615 172.546 30.4564 172.806L31.2564 172.206C30.9592 171.81 30.577 171.503 30.1191 171.288L29.6934 172.193ZM30.4585 172.809C30.6606 173.074 30.8166 173.397 30.9204 173.784L31.8863 173.525C31.7531 173.028 31.5445 172.585 31.2544 172.203L30.4585 172.809ZM30.9207 173.785C31.0261 174.174 31.0811 174.608 31.0811 175.09H32.0811C32.0811 174.532 32.0175 174.009 31.8859 173.524L30.9207 173.785ZM31.0811 175.09V175.657H32.0811V175.09H31.0811ZM31.5811 175.157H26.0576V176.157H31.5811V175.157ZM26.5576 175.657V174.625H25.5576V175.657H26.5576ZM26.0576 175.125H30.3164V174.125H26.0576V175.125ZM30.8164 174.625V174.529H29.8164V174.625H30.8164ZM30.8156 174.502C30.7945 174.121 30.7151 173.751 30.5784 173.394L29.6443 173.751C29.7445 174.013 29.8018 174.281 29.8172 174.557L30.8156 174.502ZM30.5806 173.4C30.4362 173.007 30.2008 172.675 29.8768 172.416L29.2521 173.197C29.4294 173.339 29.5586 173.518 29.642 173.745L30.5806 173.4ZM29.8768 172.416C29.5109 172.124 29.0461 172.006 28.5391 172.006V173.006C28.8979 173.006 29.1167 173.089 29.2521 173.197L29.8768 172.416ZM28.5391 172.006C28.1779 172.006 27.8351 172.084 27.5191 172.245L27.9731 173.136C28.1401 173.051 28.326 173.006 28.5391 173.006V172.006ZM27.5259 172.242C27.2051 172.399 26.9369 172.632 26.7203 172.929L27.5277 173.519C27.6575 173.341 27.804 173.219 27.9663 173.139L27.5259 172.242ZM26.7203 172.929C26.5053 173.223 26.3478 173.569 26.2392 173.957L27.2022 174.227C27.285 173.931 27.3964 173.698 27.5277 173.519L26.7203 172.929ZM26.2392 173.957C26.1285 174.352 26.0771 174.793 26.0771 175.274H27.0771C27.0771 174.862 27.1215 174.515 27.2022 174.227L26.2392 173.957ZM26.0771 175.274V175.562H27.0771V175.274H26.0771ZM26.0771 175.562C26.0771 175.958 26.1313 176.339 26.243 176.7L27.1984 176.405C27.1187 176.147 27.0771 175.867 27.0771 175.562H26.0771ZM26.2457 176.709C26.3632 177.067 26.5343 177.39 26.7617 177.673L27.5411 177.046C27.3947 176.864 27.2787 176.649 27.1957 176.397L26.2457 176.709ZM26.7654 177.677C27.0018 177.964 27.2882 178.191 27.6212 178.355L28.0624 177.458C27.8576 177.357 27.6838 177.219 27.5373 177.042L26.7654 177.677ZM27.6242 178.356C27.9744 178.526 28.3604 178.604 28.7715 178.604V177.604C28.4899 177.604 28.256 177.551 28.0594 177.456L27.6242 178.356ZM28.7715 178.604C29.2858 178.604 29.7565 178.499 30.1598 178.262L29.6527 177.4C29.4362 177.527 29.1504 177.604 28.7715 177.604V178.604ZM30.1598 178.262C30.5293 178.045 30.8485 177.756 31.1176 177.402L30.3219 176.797C30.1261 177.054 29.903 177.253 29.6527 177.4L30.1598 178.262ZM30.4087 177.491L31.1743 178.099L31.7964 177.317L31.0308 176.708L30.4087 177.491ZM31.0681 177.432C30.9356 177.633 30.7627 177.831 30.5448 178.025L31.2091 178.772C31.4834 178.528 31.7161 178.266 31.9026 177.984L31.0681 177.432ZM30.5448 178.025C30.3511 178.197 30.1029 178.345 29.7903 178.464L30.1453 179.399C30.5527 179.244 30.9106 179.037 31.2091 178.772L30.5448 178.025ZM29.7883 178.465C29.5036 178.574 29.1458 178.637 28.7031 178.637V179.637C29.2357 179.637 29.721 179.562 30.1473 179.398L29.7883 178.465ZM33.9121 171.604L34.3406 171.346L34.1948 171.104H33.9121V171.604ZM35.5322 174.297L35.1038 174.555L35.5295 175.262L35.9592 174.557L35.5322 174.297ZM37.1729 171.604V171.104H36.892L36.7458 171.343L37.1729 171.604ZM38.6562 171.604L39.073 171.88L39.5876 171.104H38.6562V171.604ZM36.2363 175.254L35.8196 174.978L35.636 175.255L35.8202 175.531L36.2363 175.254ZM38.7314 179V179.5H39.6652L39.1476 178.723L38.7314 179ZM37.2686 179L36.8428 179.262L36.9892 179.5H37.2686V179ZM35.5596 176.225L35.9853 175.962L35.5596 175.271L35.1338 175.962L35.5596 176.225ZM33.8506 179V179.5H34.1299L34.2763 179.262L33.8506 179ZM32.3809 179L31.9644 178.723L31.4485 179.5H32.3809V179ZM34.8691 175.254L35.2856 175.531L35.469 175.255L35.2862 174.978L34.8691 175.254ZM32.4561 171.604V171.104H31.5262L32.039 171.879L32.4561 171.604ZM33.4837 171.861L35.1038 174.555L35.9607 174.039L34.3406 171.346L33.4837 171.861ZM35.9592 174.557L37.5999 171.864L36.7458 171.343L35.1052 174.037L35.9592 174.557ZM37.1729 172.104H38.6562V171.104H37.1729V172.104ZM38.2395 171.327L35.8196 174.978L36.6531 175.53L39.073 171.88L38.2395 171.327ZM35.8202 175.531L38.3153 179.277L39.1476 178.723L36.6525 174.977L35.8202 175.531ZM38.7314 178.5H37.2686V179.5H38.7314V178.5ZM37.6943 178.738L35.9853 175.962L35.1338 176.487L36.8428 179.262L37.6943 178.738ZM35.1338 175.962L33.4248 178.738L34.2763 179.262L35.9853 176.487L35.1338 175.962ZM33.8506 178.5H32.3809V179.5H33.8506V178.5ZM32.7974 179.277L35.2856 175.531L34.4526 174.977L31.9644 178.723L32.7974 179.277ZM35.2862 174.978L32.8732 171.328L32.039 171.879L34.452 175.53L35.2862 174.978ZM32.4561 172.104H33.9121V171.104H32.4561V172.104ZM43.0996 171.604H43.5996V171.104H43.0996V171.604ZM43.0996 172.574V173.074H43.5996V172.574H43.0996ZM39.1006 172.574H38.6006V173.074H39.1006V172.574ZM39.1006 171.604V171.104H38.6006V171.604H39.1006ZM40.4541 169.806V169.306H39.9541V169.806H40.4541ZM41.7188 169.806H42.2188V169.306H41.7188V169.806ZM42.8604 178.022L42.9393 178.516L42.9471 178.515L42.9548 178.513L42.8604 178.022ZM43.127 177.968L43.6269 177.964L43.6228 177.34L43.0145 177.481L43.127 177.968ZM43.1338 179L43.2854 179.476L43.6362 179.365L43.6338 178.997L43.1338 179ZM42.7373 179.089L42.6551 178.596L42.6472 178.597L42.6392 178.599L42.7373 179.089ZM40.6797 178.337L40.2352 178.566L40.2397 178.574L40.6797 178.337ZM42.5996 171.604V172.574H43.5996V171.604H42.5996ZM43.0996 172.074H39.1006V173.074H43.0996V172.074ZM39.6006 172.574V171.604H38.6006V172.574H39.6006ZM39.1006 172.104H43.0996V171.104H39.1006V172.104ZM40.4541 170.306H41.7188V169.306H40.4541V170.306ZM41.2188 169.806V177.168H42.2188V169.806H41.2188ZM41.2188 177.168C41.2188 177.455 41.2604 177.752 41.4076 177.995L42.2624 177.476C42.2546 177.463 42.2188 177.382 42.2188 177.168H41.2188ZM41.4076 177.995C41.5367 178.208 41.7255 178.379 41.9776 178.463L42.2939 177.514C42.2928 177.514 42.2924 177.514 42.2901 177.512C42.287 177.509 42.2767 177.5 42.2624 177.476L41.4076 177.995ZM41.9776 178.463C42.156 178.522 42.342 178.55 42.5322 178.55V177.55C42.4399 177.55 42.3616 177.537 42.2939 177.514L41.9776 178.463ZM42.5322 178.55C42.666 178.55 42.8019 178.538 42.9393 178.516L42.7814 177.529C42.691 177.543 42.6081 177.55 42.5322 177.55V178.55ZM42.9548 178.513C43.0747 178.49 43.1709 178.471 43.2394 178.455L43.0145 177.481C42.9646 177.492 42.883 177.509 42.7659 177.531L42.9548 178.513ZM42.627 177.971L42.6338 179.003L43.6338 178.997L43.6269 177.964L42.627 177.971ZM42.9822 178.524C42.9137 178.545 42.8075 178.57 42.6551 178.596L42.8195 179.582C42.9953 179.553 43.1533 179.518 43.2854 179.476L42.9822 178.524ZM42.6392 178.599C42.522 178.622 42.3632 178.637 42.1562 178.637V179.637C42.405 179.637 42.6336 179.62 42.8354 179.579L42.6392 178.599ZM42.1562 178.637C41.9145 178.637 41.7035 178.589 41.5158 178.5L41.0877 179.404C41.4195 179.561 41.7782 179.637 42.1562 179.637V178.637ZM41.5158 178.5C41.365 178.429 41.2312 178.306 41.1197 178.099L40.2397 178.574C40.4381 178.942 40.719 179.229 41.0877 179.404L41.5158 178.5ZM41.1241 178.108C41.0239 177.914 40.9541 177.61 40.9541 177.161H39.9541C39.9541 177.696 40.0346 178.177 40.2353 178.566L41.1241 178.108ZM40.9541 177.161V169.806H39.9541V177.161H40.9541Z" fill="#818181"/>
<path d="M21.833 146.047V156H20.5342V146.047H21.833ZM25.0322 146.047V147.127H17.3418V146.047H25.0322ZM28.7031 156.137C28.1882 156.137 27.721 156.05 27.3018 155.877C26.887 155.699 26.5293 155.451 26.2285 155.132C25.9323 154.813 25.7044 154.435 25.5449 153.997C25.3854 153.56 25.3057 153.081 25.3057 152.562V152.274C25.3057 151.673 25.3945 151.137 25.5723 150.668C25.75 150.194 25.9915 149.793 26.2969 149.465C26.6022 149.137 26.9486 148.888 27.3359 148.72C27.7233 148.551 28.1243 148.467 28.5391 148.467C29.0677 148.467 29.5234 148.558 29.9062 148.74C30.2936 148.923 30.6104 149.178 30.8564 149.506C31.1025 149.829 31.2848 150.212 31.4033 150.654C31.5218 151.092 31.5811 151.57 31.5811 152.09V152.657H26.0576V151.625H30.3164V151.529C30.2982 151.201 30.2298 150.882 30.1113 150.572C29.9974 150.262 29.8151 150.007 29.5645 149.807C29.3138 149.606 28.972 149.506 28.5391 149.506C28.252 149.506 27.9876 149.567 27.7461 149.69C27.5046 149.809 27.2972 149.987 27.124 150.224C26.9508 150.461 26.8164 150.75 26.7207 151.092C26.625 151.434 26.5771 151.828 26.5771 152.274V152.562C26.5771 152.912 26.625 153.243 26.7207 153.553C26.821 153.858 26.9645 154.127 27.1514 154.359C27.3428 154.592 27.5729 154.774 27.8418 154.906C28.1152 155.038 28.4251 155.104 28.7715 155.104C29.2181 155.104 29.5964 155.013 29.9062 154.831C30.2161 154.649 30.4873 154.405 30.7197 154.1L31.4854 154.708C31.3258 154.95 31.123 155.18 30.877 155.398C30.6309 155.617 30.3278 155.795 29.9678 155.932C29.6123 156.068 29.1908 156.137 28.7031 156.137ZM33.9121 148.604L35.5322 151.297L37.1729 148.604H38.6562L36.2363 152.254L38.7314 156H37.2686L35.5596 153.225L33.8506 156H32.3809L34.8691 152.254L32.4561 148.604H33.9121ZM43.0996 148.604V149.574H39.1006V148.604H43.0996ZM40.4541 146.806H41.7188V154.168C41.7188 154.419 41.7575 154.608 41.835 154.735C41.9124 154.863 42.0127 154.947 42.1357 154.988C42.2588 155.029 42.391 155.05 42.5322 155.05C42.637 155.05 42.7464 155.041 42.8604 155.022C42.9788 155 43.0677 154.981 43.127 154.968L43.1338 156C43.0335 156.032 42.9014 156.062 42.7373 156.089C42.5778 156.121 42.3841 156.137 42.1562 156.137C41.8464 156.137 41.5615 156.075 41.3018 155.952C41.042 155.829 40.8346 155.624 40.6797 155.337C40.5293 155.045 40.4541 154.653 40.4541 154.161V146.806Z" fill="#4D88A9"/>
<path d="M29.9492 23.9805V26.5117H20.9727V23.9805H29.9492ZM21.8516 16.9375V34H18.6289V16.9375H21.8516ZM32.3398 16.9375V34H29.1172V16.9375H32.3398ZM43.1914 16.8906V34H40.0859V20.5117L35.9727 21.8711V19.3633L42.8398 16.8906H43.1914Z" fill="#4D88A9"/>
<path d="M26.8438 56.7051V58.085H19.918V56.7051H26.8438ZM20.1816 51.2031V64H18.4854V51.2031H20.1816ZM28.3203 51.2031V64H26.6328V51.2031H28.3203ZM39.2979 62.6641V64H30.9219V62.8311L35.1143 58.1641C35.6299 57.5898 36.0283 57.1035 36.3096 56.7051C36.5967 56.3008 36.7959 55.9404 36.9072 55.624C37.0244 55.3018 37.083 54.9736 37.083 54.6396C37.083 54.2178 36.9951 53.8369 36.8193 53.4971C36.6494 53.1514 36.3975 52.876 36.0635 52.6709C35.7295 52.4658 35.3252 52.3633 34.8506 52.3633C34.2822 52.3633 33.8076 52.4746 33.4268 52.6973C33.0518 52.9141 32.7705 53.2188 32.583 53.6113C32.3955 54.0039 32.3018 54.4551 32.3018 54.9648H30.6758C30.6758 54.2441 30.834 53.585 31.1504 52.9873C31.4668 52.3896 31.9355 51.915 32.5566 51.5635C33.1777 51.2061 33.9424 51.0273 34.8506 51.0273C35.6592 51.0273 36.3506 51.1709 36.9248 51.458C37.499 51.7393 37.9385 52.1377 38.2432 52.6533C38.5537 53.1631 38.709 53.7607 38.709 54.4463C38.709 54.8213 38.6445 55.2021 38.5156 55.5889C38.3926 55.9697 38.2197 56.3506 37.9971 56.7314C37.7803 57.1123 37.5254 57.4873 37.2324 57.8564C36.9453 58.2256 36.6377 58.5889 36.3096 58.9463L32.8818 62.6641H39.2979Z" fill="#6F6C6C"/>
<path d="M24.5537 82.1553V83.6318H19.3174V82.1553H24.5537ZM19.8301 78.0469V88H17.9502V78.0469H19.8301ZM25.9482 78.0469V88H24.0684V78.0469H25.9482ZM29.6055 82.2236H30.624C30.984 82.2236 31.2803 82.1621 31.5127 82.0391C31.7497 81.9115 31.9251 81.7383 32.0391 81.5195C32.1576 81.2962 32.2168 81.0387 32.2168 80.7471C32.2168 80.46 32.1644 80.2116 32.0596 80.002C31.9548 79.7878 31.7952 79.6237 31.5811 79.5098C31.3714 79.3913 31.1025 79.332 30.7744 79.332C30.5101 79.332 30.2663 79.3844 30.043 79.4893C29.8242 79.5941 29.6488 79.7445 29.5166 79.9404C29.389 80.1318 29.3252 80.362 29.3252 80.6309H27.5137C27.5137 80.0931 27.6549 79.6214 27.9375 79.2158C28.2246 78.8057 28.612 78.4844 29.0996 78.252C29.5872 78.0195 30.1318 77.9033 30.7334 77.9033C31.3896 77.9033 31.9639 78.0127 32.4561 78.2314C32.9528 78.4456 33.3379 78.7624 33.6113 79.1816C33.8893 79.6009 34.0283 80.1204 34.0283 80.7402C34.0283 81.0365 33.9577 81.3327 33.8164 81.6289C33.6797 81.9206 33.4769 82.1849 33.208 82.4219C32.9437 82.6543 32.6178 82.8434 32.2305 82.9893C31.8477 83.1305 31.4079 83.2012 30.9111 83.2012H29.6055V82.2236ZM29.6055 83.6182V82.6543H30.9111C31.4717 82.6543 31.957 82.7204 32.3672 82.8525C32.7819 82.9801 33.1237 83.1624 33.3926 83.3994C33.6615 83.6318 33.8597 83.903 33.9873 84.2129C34.1195 84.5228 34.1855 84.8555 34.1855 85.2109C34.1855 85.6758 34.099 86.0905 33.9258 86.4551C33.7526 86.8151 33.5088 87.1204 33.1943 87.3711C32.8844 87.6217 32.5199 87.8132 32.1006 87.9453C31.6813 88.0729 31.2279 88.1367 30.7402 88.1367C30.3164 88.1367 29.904 88.0798 29.5029 87.9658C29.1064 87.8473 28.7487 87.6719 28.4297 87.4395C28.1107 87.2025 27.8577 86.9062 27.6709 86.5508C27.484 86.1908 27.3906 85.7738 27.3906 85.2998H29.2021C29.2021 85.5732 29.2682 85.8171 29.4004 86.0312C29.5371 86.2454 29.724 86.4141 29.9609 86.5371C30.2025 86.6556 30.4736 86.7148 30.7744 86.7148C31.1071 86.7148 31.3919 86.6556 31.6289 86.5371C31.8704 86.4141 32.055 86.2409 32.1826 86.0176C32.3102 85.7897 32.374 85.5186 32.374 85.2041C32.374 84.8304 32.3034 84.5273 32.1621 84.2949C32.0208 84.0625 31.818 83.8916 31.5537 83.7822C31.2939 83.6729 30.984 83.6182 30.624 83.6182H29.6055Z" fill="#254D64"/>
<path d="M23.8203 104.295V104.91H18.6348V104.295H23.8203ZM18.8047 100.469V109H18.084V100.469H18.8047ZM24.4004 100.469V109H23.6797V100.469H24.4004ZM31.9355 106.246V106.844H25.8945V106.439L29.8379 100.469H30.4238L29.5918 101.916L26.75 106.246H31.9355ZM30.6055 100.469V109H29.9082V100.469H30.6055Z" fill="#4D88A9"/>
<path d="M20.9434 123.469V132H20.2285V123.469H20.9434ZM23.8672 123.469V124.09H17.3105V123.469H23.8672ZM26.9551 132.117C26.541 132.117 26.1602 132.041 25.8125 131.889C25.4688 131.736 25.168 131.521 24.9102 131.244C24.6562 130.967 24.459 130.639 24.3184 130.26C24.1816 129.877 24.1133 129.459 24.1133 129.006V128.754C24.1133 128.266 24.1855 127.824 24.3301 127.43C24.4746 127.035 24.6738 126.697 24.9277 126.416C25.1816 126.135 25.4707 125.92 25.7949 125.771C26.123 125.619 26.4668 125.543 26.8262 125.543C27.2285 125.543 27.5859 125.615 27.8984 125.76C28.2109 125.9 28.4727 126.102 28.6836 126.363C28.8984 126.621 29.0605 126.928 29.1699 127.283C29.2793 127.635 29.334 128.023 29.334 128.449V128.877H24.5352V128.279H28.6367V128.197C28.6289 127.842 28.5566 127.51 28.4199 127.201C28.2871 126.889 28.0879 126.635 27.8223 126.439C27.5566 126.244 27.2246 126.146 26.8262 126.146C26.5293 126.146 26.2559 126.209 26.0059 126.334C25.7598 126.459 25.5469 126.639 25.3672 126.873C25.1914 127.104 25.0547 127.379 24.957 127.699C24.8633 128.016 24.8164 128.367 24.8164 128.754V129.006C24.8164 129.357 24.8672 129.686 24.9688 129.99C25.0742 130.291 25.2227 130.557 25.4141 130.787C25.6094 131.018 25.8398 131.197 26.1055 131.326C26.3711 131.455 26.6641 131.52 26.9844 131.52C27.3594 131.52 27.6914 131.451 27.9805 131.314C28.2695 131.174 28.5293 130.953 28.7598 130.652L29.1992 130.992C29.0625 131.195 28.8906 131.383 28.6836 131.555C28.4805 131.727 28.2363 131.863 27.9512 131.965C27.666 132.066 27.334 132.117 26.9551 132.117ZM30.9922 125.66L32.7031 128.221L34.4199 125.66H35.252L33.1016 128.766L35.3398 132H34.5195L32.709 129.322L30.9043 132H30.084L32.3223 128.766L30.1719 125.66H30.9922ZM38.9609 125.66V126.234H35.7852V125.66H38.9609ZM36.9512 124.031H37.6484V130.459C37.6484 130.752 37.6875 130.973 37.7656 131.121C37.8438 131.27 37.9453 131.369 38.0703 131.42C38.1953 131.471 38.3301 131.496 38.4746 131.496C38.5801 131.496 38.6816 131.49 38.7793 131.479C38.877 131.463 38.9648 131.447 39.043 131.432L39.0723 132.023C38.9863 132.051 38.875 132.072 38.7383 132.088C38.6016 132.107 38.4648 132.117 38.3281 132.117C38.0586 132.117 37.8203 132.068 37.6133 131.971C37.4062 131.869 37.2441 131.697 37.127 131.455C37.0098 131.209 36.9512 130.875 36.9512 130.453V124.031Z" fill="#6F6C6C"/>
</svg>
